<?xml version="1.0" encoding="UTF-8" standalone="no"?>
<!DOCTYPE svg PUBLIC "-//W3C//DTD SVG 1.1//EN"
 "http://www.w3.org/Graphics/SVG/1.1/DTD/svg11.dtd">
<!-- Generated by graphviz version 2.40.1 (20161225.0304)
 -->
<!-- Title: dependencies Pages: 1 -->
<svg width="989pt" height="284pt"
 viewBox="0.00 0.00 989.00 284.00" xmlns="http://www.w3.org/2000/svg" xmlns:xlink="http://www.w3.org/1999/xlink">
<g id="graph0" class="graph" transform="scale(1 1) rotate(0) translate(4 280)">
<title>dependencies</title>
<polygon fill="#ffffff" stroke="transparent" points="-4,4 -4,-280 985,-280 985,4 -4,4"/>
<text text-anchor="start" x="469.5091" y="-42.4" font-family="sans-serif" font-weight="bold" font-size="14.00" fill="#000000">Legend</text>
<polygon fill="#ffffb3" stroke="transparent" points="256.5,-10 256.5,-30 276.5,-30 276.5,-10 256.5,-10"/>
<text text-anchor="start" x="280.129" y="-15.4" font-family="sans-serif" font-size="14.00" fill="#000000"> &#160;Declarations</text>
<polygon fill="#8dd3c7" stroke="transparent" points="369.5,-10 369.5,-30 389.5,-30 389.5,-10 369.5,-10"/>
<text text-anchor="start" x="393.2251" y="-15.4" font-family="sans-serif" font-size="14.00" fill="#000000"> &#160;Module</text>
<polygon fill="#80b1d3" stroke="transparent" points="455.5,-10 455.5,-30 475.5,-30 475.5,-10 455.5,-10"/>
<text text-anchor="start" x="479.2812" y="-15.4" font-family="sans-serif" font-size="14.00" fill="#000000"> &#160;Bootstrap</text>
<polygon fill="#fdb462" stroke="transparent" points="552.5,-10 552.5,-30 572.5,-30 572.5,-10 552.5,-10"/>
<text text-anchor="start" x="576.1732" y="-15.4" font-family="sans-serif" font-size="14.00" fill="#000000"> &#160;Providers</text>
<polygon fill="#fb8072" stroke="transparent" points="648.5,-10 648.5,-30 668.5,-30 668.5,-10 648.5,-10"/>
<text text-anchor="start" x="672.2258" y="-15.4" font-family="sans-serif" font-size="14.00" fill="#000000"> &#160;Exports</text>
<g id="clust1" class="cluster">
<title>cluster_CoreModule</title>
<polygon fill="none" stroke="#000000" stroke-dasharray="1,5" points="8,-70 8,-268 973,-268 973,-70 8,-70"/>
</g>
<g id="clust2" class="cluster">
<title>cluster_CoreModule_declarations</title>
<polygon fill="none" stroke="#000000" points="438,-78 438,-130 965,-130 965,-78 438,-78"/>
</g>
<g id="clust8" class="cluster">
<title>cluster_CoreModule_exports</title>
<polygon fill="none" stroke="#000000" points="220,-208 220,-260 763,-260 763,-208 220,-208"/>
</g>
<g id="clust10" class="cluster">
<title>cluster_CoreModule_providers</title>
<polygon fill="none" stroke="#000000" points="16,-78 16,-130 430,-130 430,-78 16,-78"/>
</g>
<!-- PackageSizePipe -->
<g id="node1" class="node">
<title>PackageSizePipe</title>
<polygon fill="#ffffb3" stroke="#000000" points="956.6318,-122 845.3682,-122 845.3682,-86 956.6318,-86 956.6318,-122"/>
<text text-anchor="middle" x="901" y="-99.8" font-family="Times,serif" font-size="14.00" fill="#000000">PackageSizePipe</text>
</g>
<!-- CoreModule -->
<g id="node5" class="node">
<title>CoreModule</title>
<polygon fill="#8dd3c7" stroke="#000000" points="524.2619,-187 521.2619,-191 500.2619,-191 497.2619,-187 437.7381,-187 437.7381,-151 524.2619,-151 524.2619,-187"/>
<text text-anchor="middle" x="481" y="-164.8" font-family="Times,serif" font-size="14.00" fill="#000000">CoreModule</text>
</g>
<!-- PackageSizePipe&#45;&gt;CoreModule -->
<g id="edge1" class="edge">
<title>PackageSizePipe&#45;&gt;CoreModule</title>
<path fill="none" stroke="#000000" d="M901,-122.1061C901,-141.3391 901,-169 901,-169 901,-169 534.3655,-169 534.3655,-169"/>
<polygon fill="#000000" stroke="#000000" points="534.3655,-165.5001 524.3655,-169 534.3654,-172.5001 534.3655,-165.5001"/>
</g>
<!-- PriceDivisorsPipe -->
<g id="node2" class="node">
<title>PriceDivisorsPipe</title>
<polygon fill="#ffffb3" stroke="#000000" points="827.5884,-122 710.4116,-122 710.4116,-86 827.5884,-86 827.5884,-122"/>
<text text-anchor="middle" x="769" y="-99.8" font-family="Times,serif" font-size="14.00" fill="#000000">PriceDivisorsPipe</text>
</g>
<!-- PriceDivisorsPipe&#45;&gt;CoreModule -->
<g id="edge2" class="edge">
<title>PriceDivisorsPipe&#45;&gt;CoreModule</title>
<path fill="none" stroke="#000000" d="M732.5107,-122.027C732.5107,-138.3976 732.5107,-160 732.5107,-160 732.5107,-160 534.5227,-160 534.5227,-160"/>
<polygon fill="#000000" stroke="#000000" points="534.5227,-156.5001 524.5227,-160 534.5227,-163.5001 534.5227,-156.5001"/>
</g>
<!-- SimpleDialogComponent -->
<g id="node3" class="node">
<title>SimpleDialogComponent</title>
<polygon fill="#ffffb3" stroke="#000000" points="692.6038,-122 533.3962,-122 533.3962,-86 692.6038,-86 692.6038,-122"/>
<text text-anchor="middle" x="613" y="-99.8" font-family="Times,serif" font-size="14.00" fill="#000000">SimpleDialogComponent</text>
</g>
<!-- SimpleDialogComponent&#45;&gt;CoreModule -->
<g id="edge3" class="edge">
<title>SimpleDialogComponent&#45;&gt;CoreModule</title>
<path fill="none" stroke="#000000" d="M533.413,-104C525.3776,-104 520.1031,-104 520.1031,-104 520.1031,-104 520.1031,-140.8939 520.1031,-140.8939"/>
<polygon fill="#000000" stroke="#000000" points="516.6032,-140.8938 520.1031,-150.8939 523.6032,-140.8939 516.6032,-140.8938"/>
</g>
<!-- TeirsPipe -->
<g id="node4" class="node">
<title>TeirsPipe</title>
<polygon fill="#ffffb3" stroke="#000000" points="515.6517,-122 446.3483,-122 446.3483,-86 515.6517,-86 515.6517,-122"/>
<text text-anchor="middle" x="481" y="-99.8" font-family="Times,serif" font-size="14.00" fill="#000000">TeirsPipe</text>
</g>
<!-- TeirsPipe&#45;&gt;CoreModule -->
<g id="edge4" class="edge">
<title>TeirsPipe&#45;&gt;CoreModule</title>
<path fill="none" stroke="#000000" d="M481,-122.1061C481,-122.1061 481,-140.991 481,-140.991"/>
<polygon fill="#000000" stroke="#000000" points="477.5001,-140.9909 481,-150.991 484.5001,-140.991 477.5001,-140.9909"/>
</g>
<!-- PackageSizePipe  -->
<g id="node6" class="node">
<title>PackageSizePipe </title>
<polygon fill="#fb8072" stroke="#000000" points="754.6313,-252 639.3687,-252 639.3687,-216 754.6313,-216 754.6313,-252"/>
<text text-anchor="middle" x="697" y="-229.8" font-family="Times,serif" font-size="14.00" fill="#000000">PackageSizePipe </text>
</g>
<!-- CoreModule&#45;&gt;PackageSizePipe  -->
<g id="edge5" class="edge">
<title>CoreModule&#45;&gt;PackageSizePipe </title>
<path fill="none" stroke="#000000" stroke-dasharray="5,2" d="M524.3727,-178C579.0511,-178 665.9932,-178 665.9932,-178 665.9932,-178 665.9932,-205.973 665.9932,-205.973"/>
<polygon fill="#000000" stroke="#000000" points="662.4932,-205.973 665.9932,-215.973 669.4932,-205.973 662.4932,-205.973"/>
</g>
<!-- PriceDivisorsPipe  -->
<g id="node7" class="node">
<title>PriceDivisorsPipe </title>
<polygon fill="#fb8072" stroke="#000000" points="621.0891,-252 500.9109,-252 500.9109,-216 621.0891,-216 621.0891,-252"/>
<text text-anchor="middle" x="561" y="-229.8" font-family="Times,serif" font-size="14.00" fill="#000000">PriceDivisorsPipe </text>
</g>
<!-- CoreModule&#45;&gt;PriceDivisorsPipe  -->
<g id="edge6" class="edge">
<title>CoreModule&#45;&gt;PriceDivisorsPipe </title>
<path fill="none" stroke="#000000" stroke-dasharray="5,2" d="M512.5433,-187.1061C512.5433,-187.1061 512.5433,-205.991 512.5433,-205.991"/>
<polygon fill="#000000" stroke="#000000" points="509.0434,-205.9909 512.5433,-215.991 516.0434,-205.991 509.0434,-205.9909"/>
</g>
<!-- SimpleDialogComponent  -->
<g id="node8" class="node">
<title>SimpleDialogComponent </title>
<polygon fill="#fb8072" stroke="#000000" points="482.1043,-252 319.8957,-252 319.8957,-216 482.1043,-216 482.1043,-252"/>
<text text-anchor="middle" x="401" y="-229.8" font-family="Times,serif" font-size="14.00" fill="#000000">SimpleDialogComponent </text>
</g>
<!-- CoreModule&#45;&gt;SimpleDialogComponent  -->
<g id="edge7" class="edge">
<title>CoreModule&#45;&gt;SimpleDialogComponent </title>
<path fill="none" stroke="#000000" stroke-dasharray="5,2" d="M459.9606,-187.1061C459.9606,-187.1061 459.9606,-205.991 459.9606,-205.991"/>
<polygon fill="#000000" stroke="#000000" points="456.4606,-205.9909 459.9606,-215.991 463.4606,-205.991 456.4606,-205.9909"/>
</g>
<!-- TeirsPipe  -->
<g id="node9" class="node">
<title>TeirsPipe </title>
<polygon fill="#fb8072" stroke="#000000" points="301.651,-252 228.349,-252 228.349,-216 301.651,-216 301.651,-252"/>
<text text-anchor="middle" x="265" y="-229.8" font-family="Times,serif" font-size="14.00" fill="#000000">TeirsPipe </text>
</g>
<!-- CoreModule&#45;&gt;TeirsPipe  -->
<g id="edge8" class="edge">
<title>CoreModule&#45;&gt;TeirsPipe </title>
<path fill="none" stroke="#000000" stroke-dasharray="5,2" d="M437.5317,-178C382.1668,-178 293.583,-178 293.583,-178 293.583,-178 293.583,-205.973 293.583,-205.973"/>
<polygon fill="#000000" stroke="#000000" points="290.0831,-205.973 293.583,-215.973 297.0831,-205.973 290.0831,-205.973"/>
</g>
<!-- AuthService -->
<g id="node10" class="node">
<title>AuthService</title>
<ellipse fill="#fdb462" stroke="#000000" cx="363" cy="-104" rx="59.1083" ry="18"/>
<text text-anchor="middle" x="363" y="-99.8" font-family="Times,serif" font-size="14.00" fill="#000000">AuthService</text>
</g>
<!-- AuthService&#45;&gt;CoreModule -->
<g id="edge9" class="edge">
<title>AuthService&#45;&gt;CoreModule</title>
<path fill="none" stroke="#000000" d="M422.3943,-104C433.6034,-104 441.8969,-104 441.8969,-104 441.8969,-104 441.8969,-140.8939 441.8969,-140.8939"/>
<polygon fill="#000000" stroke="#000000" points="438.397,-140.8938 441.8969,-150.8939 445.397,-140.8939 438.397,-140.8938"/>
</g>
<!-- BoardService -->
<g id="node11" class="node">
<title>BoardService</title>
<ellipse fill="#fdb462" stroke="#000000" cx="222" cy="-104" rx="63.6813" ry="18"/>
<text text-anchor="middle" x="222" y="-99.8" font-family="Times,serif" font-size="14.00" fill="#000000">BoardService</text>
</g>
<!-- BoardService&#45;&gt;CoreModule -->
<g id="edge10" class="edge">
<title>BoardService&#45;&gt;CoreModule</title>
<path fill="none" stroke="#000000" d="M257.0076,-119.3022C257.0076,-135.8828 257.0076,-160 257.0076,-160 257.0076,-160 427.5464,-160 427.5464,-160"/>
<polygon fill="#000000" stroke="#000000" points="427.5465,-163.5001 437.5464,-160 427.5464,-156.5001 427.5465,-163.5001"/>
</g>
<!-- UserService -->
<g id="node12" class="node">
<title>UserService</title>
<ellipse fill="#fdb462" stroke="#000000" cx="82" cy="-104" rx="58.4415" ry="18"/>
<text text-anchor="middle" x="82" y="-99.8" font-family="Times,serif" font-size="14.00" fill="#000000">UserService</text>
</g>
<!-- UserService&#45;&gt;CoreModule -->
<g id="edge11" class="edge">
<title>UserService&#45;&gt;CoreModule</title>
<path fill="none" stroke="#000000" d="M82,-122.1061C82,-141.3391 82,-169 82,-169 82,-169 427.5405,-169 427.5405,-169"/>
<polygon fill="#000000" stroke="#000000" points="427.5405,-172.5001 437.5405,-169 427.5404,-165.5001 427.5405,-172.5001"/>
</g>
</g>
</svg>
