<?xml version="1.0" encoding="UTF-8" standalone="no"?>
<!DOCTYPE svg PUBLIC "-//W3C//DTD SVG 1.1//EN"
 "http://www.w3.org/Graphics/SVG/1.1/DTD/svg11.dtd">
<!-- Generated by graphviz version 2.40.1 (20161225.0304)
 -->
<!-- Title: dependencies Pages: 1 -->
<svg width="769pt" height="284pt"
 viewBox="0.00 0.00 769.00 284.00" xmlns="http://www.w3.org/2000/svg" xmlns:xlink="http://www.w3.org/1999/xlink">
<g id="graph0" class="graph" transform="scale(1 1) rotate(0) translate(4 280)">
<title>dependencies</title>
<polygon fill="#ffffff" stroke="transparent" points="-4,4 -4,-280 765,-280 765,4 -4,4"/>
<text text-anchor="start" x="359.5091" y="-42.4" font-family="sans-serif" font-weight="bold" font-size="14.00" fill="#000000">Legend</text>
<polygon fill="#ffffb3" stroke="transparent" points="146.5,-10 146.5,-30 166.5,-30 166.5,-10 146.5,-10"/>
<text text-anchor="start" x="170.129" y="-15.4" font-family="sans-serif" font-size="14.00" fill="#000000"> &#160;Declarations</text>
<polygon fill="#8dd3c7" stroke="transparent" points="259.5,-10 259.5,-30 279.5,-30 279.5,-10 259.5,-10"/>
<text text-anchor="start" x="283.2251" y="-15.4" font-family="sans-serif" font-size="14.00" fill="#000000"> &#160;Module</text>
<polygon fill="#80b1d3" stroke="transparent" points="345.5,-10 345.5,-30 365.5,-30 365.5,-10 345.5,-10"/>
<text text-anchor="start" x="369.2812" y="-15.4" font-family="sans-serif" font-size="14.00" fill="#000000"> &#160;Bootstrap</text>
<polygon fill="#fdb462" stroke="transparent" points="442.5,-10 442.5,-30 462.5,-30 462.5,-10 442.5,-10"/>
<text text-anchor="start" x="466.1732" y="-15.4" font-family="sans-serif" font-size="14.00" fill="#000000"> &#160;Providers</text>
<polygon fill="#fb8072" stroke="transparent" points="538.5,-10 538.5,-30 558.5,-30 558.5,-10 538.5,-10"/>
<text text-anchor="start" x="562.2258" y="-15.4" font-family="sans-serif" font-size="14.00" fill="#000000"> &#160;Exports</text>
<g id="clust1" class="cluster">
<title>cluster_AdminModule</title>
<polygon fill="none" stroke="#000000" stroke-dasharray="1,5" points="8,-70 8,-268 753,-268 753,-70 8,-70"/>
</g>
<g id="clust2" class="cluster">
<title>cluster_AdminModule_declarations</title>
<polygon fill="none" stroke="#000000" points="16,-78 16,-130 745,-130 745,-78 16,-78"/>
</g>
<g id="clust8" class="cluster">
<title>cluster_AdminModule_exports</title>
<polygon fill="none" stroke="#000000" points="109,-208 109,-260 651,-260 651,-208 109,-208"/>
</g>
<!-- AdminBeersComponent -->
<g id="node1" class="node">
<title>AdminBeersComponent</title>
<polygon fill="#ffffb3" stroke="#000000" points="737.0912,-122 584.9088,-122 584.9088,-86 737.0912,-86 737.0912,-122"/>
<text text-anchor="middle" x="661" y="-99.8" font-family="Times,serif" font-size="14.00" fill="#000000">AdminBeersComponent</text>
</g>
<!-- AdminModule -->
<g id="node5" class="node">
<title>AdminModule</title>
<polygon fill="#8dd3c7" stroke="#000000" points="429.4386,-187 426.4386,-191 405.4386,-191 402.4386,-187 330.5614,-187 330.5614,-151 429.4386,-151 429.4386,-187"/>
<text text-anchor="middle" x="380" y="-164.8" font-family="Times,serif" font-size="14.00" fill="#000000">AdminModule</text>
</g>
<!-- AdminBeersComponent&#45;&gt;AdminModule -->
<g id="edge1" class="edge">
<title>AdminBeersComponent&#45;&gt;AdminModule</title>
<path fill="none" stroke="#000000" d="M613.875,-122.0225C613.875,-139.3734 613.875,-163 613.875,-163 613.875,-163 439.3131,-163 439.3131,-163"/>
<polygon fill="#000000" stroke="#000000" points="439.3131,-159.5001 429.3131,-163 439.3131,-166.5001 439.3131,-159.5001"/>
</g>
<!-- AdminDashboardComponent -->
<g id="node2" class="node">
<title>AdminDashboardComponent</title>
<polygon fill="#ffffb3" stroke="#000000" points="567.3613,-122 386.6387,-122 386.6387,-86 567.3613,-86 567.3613,-122"/>
<text text-anchor="middle" x="477" y="-99.8" font-family="Times,serif" font-size="14.00" fill="#000000">AdminDashboardComponent</text>
</g>
<!-- AdminDashboardComponent&#45;&gt;AdminModule -->
<g id="edge2" class="edge">
<title>AdminDashboardComponent&#45;&gt;AdminModule</title>
<path fill="none" stroke="#000000" d="M407.8941,-122.1061C407.8941,-122.1061 407.8941,-140.991 407.8941,-140.991"/>
<polygon fill="#000000" stroke="#000000" points="404.3942,-140.9909 407.8941,-150.991 411.3942,-140.991 404.3942,-140.9909"/>
</g>
<!-- AdminProposalsComponent -->
<g id="node3" class="node">
<title>AdminProposalsComponent</title>
<polygon fill="#ffffb3" stroke="#000000" points="368.1581,-122 193.8419,-122 193.8419,-86 368.1581,-86 368.1581,-122"/>
<text text-anchor="middle" x="281" y="-99.8" font-family="Times,serif" font-size="14.00" fill="#000000">AdminProposalsComponent</text>
</g>
<!-- AdminProposalsComponent&#45;&gt;AdminModule -->
<g id="edge3" class="edge">
<title>AdminProposalsComponent&#45;&gt;AdminModule</title>
<path fill="none" stroke="#000000" d="M349.5551,-122.1061C349.5551,-122.1061 349.5551,-140.991 349.5551,-140.991"/>
<polygon fill="#000000" stroke="#000000" points="346.0551,-140.9909 349.5551,-150.991 353.0551,-140.991 346.0551,-140.9909"/>
</g>
<!-- AdminUsersComponent -->
<g id="node4" class="node">
<title>AdminUsersComponent</title>
<polygon fill="#ffffb3" stroke="#000000" points="176.0912,-122 23.9088,-122 23.9088,-86 176.0912,-86 176.0912,-122"/>
<text text-anchor="middle" x="100" y="-99.8" font-family="Times,serif" font-size="14.00" fill="#000000">AdminUsersComponent</text>
</g>
<!-- AdminUsersComponent&#45;&gt;AdminModule -->
<g id="edge4" class="edge">
<title>AdminUsersComponent&#45;&gt;AdminModule</title>
<path fill="none" stroke="#000000" d="M146.625,-122.0225C146.625,-139.3734 146.625,-163 146.625,-163 146.625,-163 320.5072,-163 320.5072,-163"/>
<polygon fill="#000000" stroke="#000000" points="320.5072,-166.5001 330.5072,-163 320.5071,-159.5001 320.5072,-166.5001"/>
</g>
<!-- AdminBeersComponent  -->
<g id="node6" class="node">
<title>AdminBeersComponent </title>
<polygon fill="#fb8072" stroke="#000000" points="642.5917,-252 487.4083,-252 487.4083,-216 642.5917,-216 642.5917,-252"/>
<text text-anchor="middle" x="565" y="-229.8" font-family="Times,serif" font-size="14.00" fill="#000000">AdminBeersComponent </text>
</g>
<!-- AdminModule&#45;&gt;AdminBeersComponent  -->
<g id="edge5" class="edge">
<title>AdminModule&#45;&gt;AdminBeersComponent </title>
<path fill="none" stroke="#000000" stroke-dasharray="5,2" d="M429.4644,-175C472.2617,-175 527.3175,-175 527.3175,-175 527.3175,-175 527.3175,-205.9775 527.3175,-205.9775"/>
<polygon fill="#000000" stroke="#000000" points="523.8176,-205.9774 527.3175,-215.9775 530.8176,-205.9775 523.8176,-205.9774"/>
</g>
<!-- AdminProposalsComponent  -->
<g id="node7" class="node">
<title>AdminProposalsComponent </title>
<polygon fill="#fb8072" stroke="#000000" points="469.1579,-252 290.8421,-252 290.8421,-216 469.1579,-216 469.1579,-252"/>
<text text-anchor="middle" x="380" y="-229.8" font-family="Times,serif" font-size="14.00" fill="#000000">AdminProposalsComponent </text>
</g>
<!-- AdminModule&#45;&gt;AdminProposalsComponent  -->
<g id="edge6" class="edge">
<title>AdminModule&#45;&gt;AdminProposalsComponent </title>
<path fill="none" stroke="#000000" stroke-dasharray="5,2" d="M380,-187.1061C380,-187.1061 380,-205.991 380,-205.991"/>
<polygon fill="#000000" stroke="#000000" points="376.5001,-205.9909 380,-215.991 383.5001,-205.991 376.5001,-205.9909"/>
</g>
<!-- AdminUsersComponent  -->
<g id="node8" class="node">
<title>AdminUsersComponent </title>
<polygon fill="#fb8072" stroke="#000000" points="272.5917,-252 117.4083,-252 117.4083,-216 272.5917,-216 272.5917,-252"/>
<text text-anchor="middle" x="195" y="-229.8" font-family="Times,serif" font-size="14.00" fill="#000000">AdminUsersComponent </text>
</g>
<!-- AdminModule&#45;&gt;AdminUsersComponent  -->
<g id="edge7" class="edge">
<title>AdminModule&#45;&gt;AdminUsersComponent </title>
<path fill="none" stroke="#000000" stroke-dasharray="5,2" d="M330.7205,-175C288.0833,-175 233.2334,-175 233.2334,-175 233.2334,-175 233.2334,-205.9775 233.2334,-205.9775"/>
<polygon fill="#000000" stroke="#000000" points="229.7334,-205.9774 233.2334,-215.9775 236.7334,-205.9775 229.7334,-205.9774"/>
</g>
</g>
</svg>
