<?xml version="1.0" encoding="UTF-8" standalone="no"?>
<!DOCTYPE svg PUBLIC "-//W3C//DTD SVG 1.1//EN"
 "http://www.w3.org/Graphics/SVG/1.1/DTD/svg11.dtd">
<!-- Generated by graphviz version 2.40.1 (20161225.0304)
 -->
<!-- Title: dependencies Pages: 1 -->
<svg width="1758pt" height="284pt"
 viewBox="0.00 0.00 1758.00 284.00" xmlns="http://www.w3.org/2000/svg" xmlns:xlink="http://www.w3.org/1999/xlink">
<g id="graph0" class="graph" transform="scale(1 1) rotate(0) translate(4 280)">
<title>dependencies</title>
<polygon fill="#ffffff" stroke="transparent" points="-4,4 -4,-280 1754,-280 1754,4 -4,4"/>
<text text-anchor="start" x="854.0091" y="-42.4" font-family="sans-serif" font-weight="bold" font-size="14.00" fill="#000000">Legend</text>
<polygon fill="#ffffb3" stroke="transparent" points="641,-10 641,-30 661,-30 661,-10 641,-10"/>
<text text-anchor="start" x="664.629" y="-15.4" font-family="sans-serif" font-size="14.00" fill="#000000"> &#160;Declarations</text>
<polygon fill="#8dd3c7" stroke="transparent" points="754,-10 754,-30 774,-30 774,-10 754,-10"/>
<text text-anchor="start" x="777.7251" y="-15.4" font-family="sans-serif" font-size="14.00" fill="#000000"> &#160;Module</text>
<polygon fill="#80b1d3" stroke="transparent" points="840,-10 840,-30 860,-30 860,-10 840,-10"/>
<text text-anchor="start" x="863.7812" y="-15.4" font-family="sans-serif" font-size="14.00" fill="#000000"> &#160;Bootstrap</text>
<polygon fill="#fdb462" stroke="transparent" points="937,-10 937,-30 957,-30 957,-10 937,-10"/>
<text text-anchor="start" x="960.6732" y="-15.4" font-family="sans-serif" font-size="14.00" fill="#000000"> &#160;Providers</text>
<polygon fill="#fb8072" stroke="transparent" points="1033,-10 1033,-30 1053,-30 1053,-10 1033,-10"/>
<text text-anchor="start" x="1056.7258" y="-15.4" font-family="sans-serif" font-size="14.00" fill="#000000"> &#160;Exports</text>
<g id="clust1" class="cluster">
<title>cluster_AppModule</title>
<polygon fill="none" stroke="#000000" stroke-dasharray="1,5" points="8,-70 8,-268 1742,-268 1742,-70 8,-70"/>
</g>
<g id="clust2" class="cluster">
<title>cluster_AppModule_declarations</title>
<polygon fill="none" stroke="#000000" points="1178,-78 1178,-130 1734,-130 1734,-78 1178,-78"/>
</g>
<g id="clust7" class="cluster">
<title>cluster_AppModule_imports</title>
<polygon fill="none" stroke="#000000" points="16,-78 16,-130 1170,-130 1170,-78 16,-78"/>
</g>
<g id="clust9" class="cluster">
<title>cluster_AppModule_bootstrap</title>
<polygon fill="none" stroke="#000000" points="855,-208 855,-260 979,-260 979,-208 855,-208"/>
</g>
<!-- AppComponent -->
<g id="node1" class="node">
<title>AppComponent</title>
<polygon fill="#ffffb3" stroke="#000000" points="1725.9399,-122 1620.0601,-122 1620.0601,-86 1725.9399,-86 1725.9399,-122"/>
<text text-anchor="middle" x="1673" y="-99.8" font-family="Times,serif" font-size="14.00" fill="#000000">AppComponent</text>
</g>
<!-- AppModule -->
<g id="node5" class="node">
<title>AppModule</title>
<polygon fill="#8dd3c7" stroke="#000000" points="958.6571,-187 955.6571,-191 934.6571,-191 931.6571,-187 875.3429,-187 875.3429,-151 958.6571,-151 958.6571,-187"/>
<text text-anchor="middle" x="917" y="-164.8" font-family="Times,serif" font-size="14.00" fill="#000000">AppModule</text>
</g>
<!-- AppComponent&#45;&gt;AppModule -->
<g id="edge1" class="edge">
<title>AppComponent&#45;&gt;AppModule</title>
<path fill="none" stroke="#000000" d="M1673,-122.2479C1673,-145.0179 1673,-181 1673,-181 1673,-181 968.7227,-181 968.7227,-181"/>
<polygon fill="#000000" stroke="#000000" points="968.7227,-177.5001 958.7227,-181 968.7227,-184.5001 968.7227,-177.5001"/>
</g>
<!-- LoginComponent -->
<g id="node2" class="node">
<title>LoginComponent</title>
<polygon fill="#ffffb3" stroke="#000000" points="1602.2758,-122 1487.7242,-122 1487.7242,-86 1602.2758,-86 1602.2758,-122"/>
<text text-anchor="middle" x="1545" y="-99.8" font-family="Times,serif" font-size="14.00" fill="#000000">LoginComponent</text>
</g>
<!-- LoginComponent&#45;&gt;AppModule -->
<g id="edge2" class="edge">
<title>LoginComponent&#45;&gt;AppModule</title>
<path fill="none" stroke="#000000" d="M1545,-122.2843C1545,-143.3211 1545,-175 1545,-175 1545,-175 968.6912,-175 968.6912,-175"/>
<polygon fill="#000000" stroke="#000000" points="968.6912,-171.5001 958.6912,-175 968.6911,-178.5001 968.6912,-171.5001"/>
</g>
<!-- NotFoundComponent -->
<g id="node3" class="node">
<title>NotFoundComponent</title>
<polygon fill="#ffffb3" stroke="#000000" points="1470.1122,-122 1331.8878,-122 1331.8878,-86 1470.1122,-86 1470.1122,-122"/>
<text text-anchor="middle" x="1401" y="-99.8" font-family="Times,serif" font-size="14.00" fill="#000000">NotFoundComponent</text>
</g>
<!-- NotFoundComponent&#45;&gt;AppModule -->
<g id="edge3" class="edge">
<title>NotFoundComponent&#45;&gt;AppModule</title>
<path fill="none" stroke="#000000" d="M1401,-122.1061C1401,-141.3391 1401,-169 1401,-169 1401,-169 968.6845,-169 968.6845,-169"/>
<polygon fill="#000000" stroke="#000000" points="968.6845,-165.5001 958.6845,-169 968.6844,-172.5001 968.6845,-165.5001"/>
</g>
<!-- RegisterComponent -->
<g id="node4" class="node">
<title>RegisterComponent</title>
<polygon fill="#ffffb3" stroke="#000000" points="1313.9846,-122 1186.0154,-122 1186.0154,-86 1313.9846,-86 1313.9846,-122"/>
<text text-anchor="middle" x="1250" y="-99.8" font-family="Times,serif" font-size="14.00" fill="#000000">RegisterComponent</text>
</g>
<!-- RegisterComponent&#45;&gt;AppModule -->
<g id="edge4" class="edge">
<title>RegisterComponent&#45;&gt;AppModule</title>
<path fill="none" stroke="#000000" d="M1250,-122.0225C1250,-139.3734 1250,-163 1250,-163 1250,-163 968.8375,-163 968.8375,-163"/>
<polygon fill="#000000" stroke="#000000" points="968.8375,-159.5001 958.8375,-163 968.8375,-166.5001 968.8375,-159.5001"/>
</g>
<!-- AppComponent  -->
<g id="node14" class="node">
<title>AppComponent </title>
<polygon fill="#80b1d3" stroke="#000000" points="971.439,-252 862.561,-252 862.561,-216 971.439,-216 971.439,-252"/>
<text text-anchor="middle" x="917" y="-229.8" font-family="Times,serif" font-size="14.00" fill="#000000">AppComponent </text>
</g>
<!-- AppModule&#45;&gt;AppComponent  -->
<g id="edge13" class="edge">
<title>AppModule&#45;&gt;AppComponent </title>
<path fill="none" stroke="#000000" stroke-dasharray="1,5" d="M917,-187.1061C917,-187.1061 917,-205.991 917,-205.991"/>
<polygon fill="#000000" stroke="#000000" points="913.5001,-205.9909 917,-215.991 920.5001,-205.991 913.5001,-205.9909"/>
</g>
<!-- AppRoutingModule -->
<g id="node6" class="node">
<title>AppRoutingModule</title>
<polygon fill="#8dd3c7" stroke="#000000" points="1162.2744,-122 1159.2744,-126 1138.2744,-126 1135.2744,-122 1033.7256,-122 1033.7256,-86 1162.2744,-86 1162.2744,-122"/>
<text text-anchor="middle" x="1098" y="-99.8" font-family="Times,serif" font-size="14.00" fill="#000000">AppRoutingModule</text>
</g>
<!-- AppRoutingModule&#45;&gt;AppModule -->
<g id="edge5" class="edge">
<title>AppRoutingModule&#45;&gt;AppModule</title>
<path fill="none" stroke="#000000" d="M1098,-122.2396C1098,-137.5706 1098,-157 1098,-157 1098,-157 968.98,-157 968.98,-157"/>
<polygon fill="#000000" stroke="#000000" points="968.98,-153.5001 958.98,-157 968.9799,-160.5001 968.98,-153.5001"/>
</g>
<!-- CoreModule -->
<g id="node7" class="node">
<title>CoreModule</title>
<polygon fill="#8dd3c7" stroke="#000000" points="1015.2619,-122 1012.2619,-126 991.2619,-126 988.2619,-122 928.7381,-122 928.7381,-86 1015.2619,-86 1015.2619,-122"/>
<text text-anchor="middle" x="972" y="-99.8" font-family="Times,serif" font-size="14.00" fill="#000000">CoreModule</text>
</g>
<!-- CoreModule&#45;&gt;AppModule -->
<g id="edge6" class="edge">
<title>CoreModule&#45;&gt;AppModule</title>
<path fill="none" stroke="#000000" d="M943.7237,-122.1061C943.7237,-122.1061 943.7237,-140.991 943.7237,-140.991"/>
<polygon fill="#000000" stroke="#000000" points="940.2238,-140.9909 943.7237,-150.991 947.2238,-140.991 940.2238,-140.9909"/>
</g>
<!-- ProfileModule -->
<g id="node8" class="node">
<title>ProfileModule</title>
<polygon fill="#8dd3c7" stroke="#000000" points="910.65,-122 907.65,-126 886.65,-126 883.65,-122 813.35,-122 813.35,-86 910.65,-86 910.65,-122"/>
<text text-anchor="middle" x="862" y="-99.8" font-family="Times,serif" font-size="14.00" fill="#000000">ProfileModule</text>
</g>
<!-- ProfileModule&#45;&gt;AppModule -->
<g id="edge7" class="edge">
<title>ProfileModule&#45;&gt;AppModule</title>
<path fill="none" stroke="#000000" d="M892.9983,-122.1061C892.9983,-122.1061 892.9983,-140.991 892.9983,-140.991"/>
<polygon fill="#000000" stroke="#000000" points="889.4983,-140.9909 892.9983,-150.991 896.4983,-140.991 889.4983,-140.9909"/>
</g>
<!-- ProfileRoutingModule -->
<g id="node9" class="node">
<title>ProfileRoutingModule</title>
<polygon fill="#8dd3c7" stroke="#000000" points="795.2674,-122 792.2674,-126 771.2674,-126 768.2674,-122 652.7326,-122 652.7326,-86 795.2674,-86 795.2674,-122"/>
<text text-anchor="middle" x="724" y="-99.8" font-family="Times,serif" font-size="14.00" fill="#000000">ProfileRoutingModule</text>
</g>
<!-- ProfileRoutingModule&#45;&gt;AppModule -->
<g id="edge8" class="edge">
<title>ProfileRoutingModule&#45;&gt;AppModule</title>
<path fill="none" stroke="#000000" d="M724,-122.2396C724,-137.5706 724,-157 724,-157 724,-157 865.1219,-157 865.1219,-157"/>
<polygon fill="#000000" stroke="#000000" points="865.1219,-160.5001 875.1219,-157 865.1218,-153.5001 865.1219,-160.5001"/>
</g>
<!-- ProposalModule -->
<g id="node10" class="node">
<title>ProposalModule</title>
<polygon fill="#8dd3c7" stroke="#000000" points="634.0438,-122 631.0438,-126 610.0438,-126 607.0438,-122 525.9562,-122 525.9562,-86 634.0438,-86 634.0438,-122"/>
<text text-anchor="middle" x="580" y="-99.8" font-family="Times,serif" font-size="14.00" fill="#000000">ProposalModule</text>
</g>
<!-- ProposalModule&#45;&gt;AppModule -->
<g id="edge9" class="edge">
<title>ProposalModule&#45;&gt;AppModule</title>
<path fill="none" stroke="#000000" d="M580,-122.0225C580,-139.3734 580,-163 580,-163 580,-163 865.3392,-163 865.3392,-163"/>
<polygon fill="#000000" stroke="#000000" points="865.3392,-166.5001 875.3392,-163 865.3392,-159.5001 865.3392,-166.5001"/>
</g>
<!-- ProposalRoutingModule -->
<g id="node11" class="node">
<title>ProposalRoutingModule</title>
<polygon fill="#8dd3c7" stroke="#000000" points="507.661,-122 504.661,-126 483.661,-126 480.661,-122 354.339,-122 354.339,-86 507.661,-86 507.661,-122"/>
<text text-anchor="middle" x="431" y="-99.8" font-family="Times,serif" font-size="14.00" fill="#000000">ProposalRoutingModule</text>
</g>
<!-- ProposalRoutingModule&#45;&gt;AppModule -->
<g id="edge10" class="edge">
<title>ProposalRoutingModule&#45;&gt;AppModule</title>
<path fill="none" stroke="#000000" d="M431,-122.1061C431,-141.3391 431,-169 431,-169 431,-169 865.1433,-169 865.1433,-169"/>
<polygon fill="#000000" stroke="#000000" points="865.1433,-172.5001 875.1433,-169 865.1432,-165.5001 865.1433,-172.5001"/>
</g>
<!-- SwapBoardModule -->
<g id="node12" class="node">
<title>SwapBoardModule</title>
<polygon fill="#8dd3c7" stroke="#000000" points="336.3655,-122 333.3655,-126 312.3655,-126 309.3655,-122 211.6345,-122 211.6345,-86 336.3655,-86 336.3655,-122"/>
<text text-anchor="middle" x="274" y="-99.8" font-family="Times,serif" font-size="14.00" fill="#000000">SwapBoardModule</text>
</g>
<!-- SwapBoardModule&#45;&gt;AppModule -->
<g id="edge11" class="edge">
<title>SwapBoardModule&#45;&gt;AppModule</title>
<path fill="none" stroke="#000000" d="M274,-122.2843C274,-143.3211 274,-175 274,-175 274,-175 865.3064,-175 865.3064,-175"/>
<polygon fill="#000000" stroke="#000000" points="865.3064,-178.5001 875.3064,-175 865.3064,-171.5001 865.3064,-178.5001"/>
</g>
<!-- SwapBoardRoutingModule -->
<g id="node13" class="node">
<title>SwapBoardRoutingModule</title>
<polygon fill="#8dd3c7" stroke="#000000" points="193.9832,-122 190.9832,-126 169.9832,-126 166.9832,-122 24.0168,-122 24.0168,-86 193.9832,-86 193.9832,-122"/>
<text text-anchor="middle" x="109" y="-99.8" font-family="Times,serif" font-size="14.00" fill="#000000">SwapBoardRoutingModule</text>
</g>
<!-- SwapBoardRoutingModule&#45;&gt;AppModule -->
<g id="edge12" class="edge">
<title>SwapBoardRoutingModule&#45;&gt;AppModule</title>
<path fill="none" stroke="#000000" d="M109,-122.2479C109,-145.0179 109,-181 109,-181 109,-181 865.2599,-181 865.2599,-181"/>
<polygon fill="#000000" stroke="#000000" points="865.2599,-184.5001 875.2599,-181 865.2598,-177.5001 865.2599,-184.5001"/>
</g>
</g>
</svg>
