<?xml version="1.0" encoding="UTF-8" standalone="no"?>
<!DOCTYPE svg PUBLIC "-//W3C//DTD SVG 1.1//EN"
 "http://www.w3.org/Graphics/SVG/1.1/DTD/svg11.dtd">
<!-- Generated by graphviz version 2.40.1 (20161225.0304)
 -->
<!-- Title: dependencies Pages: 1 -->
<svg width="2036pt" height="284pt"
 viewBox="0.00 0.00 2036.00 284.00" xmlns="http://www.w3.org/2000/svg" xmlns:xlink="http://www.w3.org/1999/xlink">
<g id="graph0" class="graph" transform="scale(1 1) rotate(0) translate(4 280)">
<title>dependencies</title>
<polygon fill="#ffffff" stroke="transparent" points="-4,4 -4,-280 2032,-280 2032,4 -4,4"/>
<text text-anchor="start" x="993.0091" y="-42.4" font-family="sans-serif" font-weight="bold" font-size="14.00" fill="#000000">Legend</text>
<polygon fill="#ffffb3" stroke="transparent" points="780,-10 780,-30 800,-30 800,-10 780,-10"/>
<text text-anchor="start" x="803.629" y="-15.4" font-family="sans-serif" font-size="14.00" fill="#000000"> &#160;Declarations</text>
<polygon fill="#8dd3c7" stroke="transparent" points="893,-10 893,-30 913,-30 913,-10 893,-10"/>
<text text-anchor="start" x="916.7251" y="-15.4" font-family="sans-serif" font-size="14.00" fill="#000000"> &#160;Module</text>
<polygon fill="#80b1d3" stroke="transparent" points="979,-10 979,-30 999,-30 999,-10 979,-10"/>
<text text-anchor="start" x="1002.7812" y="-15.4" font-family="sans-serif" font-size="14.00" fill="#000000"> &#160;Bootstrap</text>
<polygon fill="#fdb462" stroke="transparent" points="1076,-10 1076,-30 1096,-30 1096,-10 1076,-10"/>
<text text-anchor="start" x="1099.6732" y="-15.4" font-family="sans-serif" font-size="14.00" fill="#000000"> &#160;Providers</text>
<polygon fill="#fb8072" stroke="transparent" points="1172,-10 1172,-30 1192,-30 1192,-10 1172,-10"/>
<text text-anchor="start" x="1195.7258" y="-15.4" font-family="sans-serif" font-size="14.00" fill="#000000"> &#160;Exports</text>
<g id="clust1" class="cluster">
<title>cluster_AppModule</title>
<polygon fill="none" stroke="#000000" stroke-dasharray="1,5" points="8,-70 8,-268 2020,-268 2020,-70 8,-70"/>
</g>
<g id="clust2" class="cluster">
<title>cluster_AppModule_declarations</title>
<polygon fill="none" stroke="#000000" points="1456,-78 1456,-130 2012,-130 2012,-78 1456,-78"/>
</g>
<g id="clust7" class="cluster">
<title>cluster_AppModule_imports</title>
<polygon fill="none" stroke="#000000" points="16,-78 16,-130 1448,-130 1448,-78 16,-78"/>
</g>
<g id="clust9" class="cluster">
<title>cluster_AppModule_bootstrap</title>
<polygon fill="none" stroke="#000000" points="973,-208 973,-260 1097,-260 1097,-208 973,-208"/>
</g>
<!-- AppComponent -->
<g id="node1" class="node">
<title>AppComponent</title>
<polygon fill="#ffffb3" stroke="#000000" points="2003.9399,-122 1898.0601,-122 1898.0601,-86 2003.9399,-86 2003.9399,-122"/>
<text text-anchor="middle" x="1951" y="-99.8" font-family="Times,serif" font-size="14.00" fill="#000000">AppComponent</text>
</g>
<!-- AppModule -->
<g id="node5" class="node">
<title>AppModule</title>
<polygon fill="#8dd3c7" stroke="#000000" points="1076.6571,-187 1073.6571,-191 1052.6571,-191 1049.6571,-187 993.3429,-187 993.3429,-151 1076.6571,-151 1076.6571,-187"/>
<text text-anchor="middle" x="1035" y="-164.8" font-family="Times,serif" font-size="14.00" fill="#000000">AppModule</text>
</g>
<!-- AppComponent&#45;&gt;AppModule -->
<g id="edge1" class="edge">
<title>AppComponent&#45;&gt;AppModule</title>
<path fill="none" stroke="#000000" d="M1951,-122.0908C1951,-145.1328 1951,-182 1951,-182 1951,-182 1086.7389,-182 1086.7389,-182"/>
<polygon fill="#000000" stroke="#000000" points="1086.7389,-178.5001 1076.7389,-182 1086.7388,-185.5001 1086.7389,-178.5001"/>
</g>
<!-- LoginComponent -->
<g id="node2" class="node">
<title>LoginComponent</title>
<polygon fill="#ffffb3" stroke="#000000" points="1880.2758,-122 1765.7242,-122 1765.7242,-86 1880.2758,-86 1880.2758,-122"/>
<text text-anchor="middle" x="1823" y="-99.8" font-family="Times,serif" font-size="14.00" fill="#000000">LoginComponent</text>
</g>
<!-- LoginComponent&#45;&gt;AppModule -->
<g id="edge2" class="edge">
<title>LoginComponent&#45;&gt;AppModule</title>
<path fill="none" stroke="#000000" d="M1823,-122.0449C1823,-143.6623 1823,-177 1823,-177 1823,-177 1086.8099,-177 1086.8099,-177"/>
<polygon fill="#000000" stroke="#000000" points="1086.81,-173.5001 1076.8099,-177 1086.8099,-180.5001 1086.81,-173.5001"/>
</g>
<!-- NotFoundComponent -->
<g id="node3" class="node">
<title>NotFoundComponent</title>
<polygon fill="#ffffb3" stroke="#000000" points="1748.1122,-122 1609.8878,-122 1609.8878,-86 1748.1122,-86 1748.1122,-122"/>
<text text-anchor="middle" x="1679" y="-99.8" font-family="Times,serif" font-size="14.00" fill="#000000">NotFoundComponent</text>
</g>
<!-- NotFoundComponent&#45;&gt;AppModule -->
<g id="edge3" class="edge">
<title>NotFoundComponent&#45;&gt;AppModule</title>
<path fill="none" stroke="#000000" d="M1679,-122.2228C1679,-142.3652 1679,-172 1679,-172 1679,-172 1086.7584,-172 1086.7584,-172"/>
<polygon fill="#000000" stroke="#000000" points="1086.7585,-168.5001 1076.7584,-172 1086.7584,-175.5001 1086.7585,-168.5001"/>
</g>
<!-- RegisterComponent -->
<g id="node4" class="node">
<title>RegisterComponent</title>
<polygon fill="#ffffb3" stroke="#000000" points="1591.9846,-122 1464.0154,-122 1464.0154,-86 1591.9846,-86 1591.9846,-122"/>
<text text-anchor="middle" x="1528" y="-99.8" font-family="Times,serif" font-size="14.00" fill="#000000">RegisterComponent</text>
</g>
<!-- RegisterComponent&#45;&gt;AppModule -->
<g id="edge4" class="edge">
<title>RegisterComponent&#45;&gt;AppModule</title>
<path fill="none" stroke="#000000" d="M1528,-122.2222C1528,-140.8285 1528,-167 1528,-167 1528,-167 1087.0329,-167 1087.0329,-167"/>
<polygon fill="#000000" stroke="#000000" points="1087.0329,-163.5001 1077.0329,-167 1087.0329,-170.5001 1087.0329,-163.5001"/>
</g>
<!-- AppComponent  -->
<g id="node16" class="node">
<title>AppComponent </title>
<polygon fill="#80b1d3" stroke="#000000" points="1089.439,-252 980.561,-252 980.561,-216 1089.439,-216 1089.439,-252"/>
<text text-anchor="middle" x="1035" y="-229.8" font-family="Times,serif" font-size="14.00" fill="#000000">AppComponent </text>
</g>
<!-- AppModule&#45;&gt;AppComponent  -->
<g id="edge15" class="edge">
<title>AppModule&#45;&gt;AppComponent </title>
<path fill="none" stroke="#000000" stroke-dasharray="1,5" d="M1035,-187.1061C1035,-187.1061 1035,-205.991 1035,-205.991"/>
<polygon fill="#000000" stroke="#000000" points="1031.5001,-205.9909 1035,-215.991 1038.5001,-205.991 1031.5001,-205.9909"/>
</g>
<!-- AdminModule -->
<g id="node6" class="node">
<title>AdminModule</title>
<polygon fill="#8dd3c7" stroke="#000000" points="1440.4386,-122 1437.4386,-126 1416.4386,-126 1413.4386,-122 1341.5614,-122 1341.5614,-86 1440.4386,-86 1440.4386,-122"/>
<text text-anchor="middle" x="1391" y="-99.8" font-family="Times,serif" font-size="14.00" fill="#000000">AdminModule</text>
</g>
<!-- AdminModule&#45;&gt;AppModule -->
<g id="edge5" class="edge">
<title>AdminModule&#45;&gt;AppModule</title>
<path fill="none" stroke="#000000" d="M1391,-122.0336C1391,-139.0597 1391,-162 1391,-162 1391,-162 1086.8846,-162 1086.8846,-162"/>
<polygon fill="#000000" stroke="#000000" points="1086.8846,-158.5001 1076.8846,-162 1086.8845,-165.5001 1086.8846,-158.5001"/>
</g>
<!-- AdminRoutingModule -->
<g id="node7" class="node">
<title>AdminRoutingModule</title>
<polygon fill="#8dd3c7" stroke="#000000" points="1323.5561,-122 1320.5561,-126 1299.5561,-126 1296.5561,-122 1180.4439,-122 1180.4439,-86 1323.5561,-86 1323.5561,-122"/>
<text text-anchor="middle" x="1252" y="-99.8" font-family="Times,serif" font-size="14.00" fill="#000000">AdminRoutingModule</text>
</g>
<!-- AdminRoutingModule&#45;&gt;AppModule -->
<g id="edge6" class="edge">
<title>AdminRoutingModule&#45;&gt;AppModule</title>
<path fill="none" stroke="#000000" d="M1252,-122.2396C1252,-137.5706 1252,-157 1252,-157 1252,-157 1086.8398,-157 1086.8398,-157"/>
<polygon fill="#000000" stroke="#000000" points="1086.8398,-153.5001 1076.8398,-157 1086.8397,-160.5001 1086.8398,-153.5001"/>
</g>
<!-- AppRoutingModule -->
<g id="node8" class="node">
<title>AppRoutingModule</title>
<polygon fill="#8dd3c7" stroke="#000000" points="1162.2744,-122 1159.2744,-126 1138.2744,-126 1135.2744,-122 1033.7256,-122 1033.7256,-86 1162.2744,-86 1162.2744,-122"/>
<text text-anchor="middle" x="1098" y="-99.8" font-family="Times,serif" font-size="14.00" fill="#000000">AppRoutingModule</text>
</g>
<!-- AppRoutingModule&#45;&gt;AppModule -->
<g id="edge7" class="edge">
<title>AppRoutingModule&#45;&gt;AppModule</title>
<path fill="none" stroke="#000000" d="M1055.2206,-122.1061C1055.2206,-122.1061 1055.2206,-140.991 1055.2206,-140.991"/>
<polygon fill="#000000" stroke="#000000" points="1051.7206,-140.9909 1055.2206,-150.991 1058.7206,-140.991 1051.7206,-140.9909"/>
</g>
<!-- CoreModule -->
<g id="node9" class="node">
<title>CoreModule</title>
<polygon fill="#8dd3c7" stroke="#000000" points="1015.2619,-122 1012.2619,-126 991.2619,-126 988.2619,-122 928.7381,-122 928.7381,-86 1015.2619,-86 1015.2619,-122"/>
<text text-anchor="middle" x="972" y="-99.8" font-family="Times,serif" font-size="14.00" fill="#000000">CoreModule</text>
</g>
<!-- CoreModule&#45;&gt;AppModule -->
<g id="edge8" class="edge">
<title>CoreModule&#45;&gt;AppModule</title>
<path fill="none" stroke="#000000" d="M1004.2763,-122.1061C1004.2763,-122.1061 1004.2763,-140.991 1004.2763,-140.991"/>
<polygon fill="#000000" stroke="#000000" points="1000.7764,-140.9909 1004.2763,-150.991 1007.7764,-140.991 1000.7764,-140.9909"/>
</g>
<!-- ProfileModule -->
<g id="node10" class="node">
<title>ProfileModule</title>
<polygon fill="#8dd3c7" stroke="#000000" points="910.65,-122 907.65,-126 886.65,-126 883.65,-122 813.35,-122 813.35,-86 910.65,-86 910.65,-122"/>
<text text-anchor="middle" x="862" y="-99.8" font-family="Times,serif" font-size="14.00" fill="#000000">ProfileModule</text>
</g>
<!-- ProfileModule&#45;&gt;AppModule -->
<g id="edge9" class="edge">
<title>ProfileModule&#45;&gt;AppModule</title>
<path fill="none" stroke="#000000" d="M862,-122.2396C862,-137.5706 862,-157 862,-157 862,-157 983.1215,-157 983.1215,-157"/>
<polygon fill="#000000" stroke="#000000" points="983.1216,-160.5001 993.1215,-157 983.1215,-153.5001 983.1216,-160.5001"/>
</g>
<!-- ProfileRoutingModule -->
<g id="node11" class="node">
<title>ProfileRoutingModule</title>
<polygon fill="#8dd3c7" stroke="#000000" points="795.2674,-122 792.2674,-126 771.2674,-126 768.2674,-122 652.7326,-122 652.7326,-86 795.2674,-86 795.2674,-122"/>
<text text-anchor="middle" x="724" y="-99.8" font-family="Times,serif" font-size="14.00" fill="#000000">ProfileRoutingModule</text>
</g>
<!-- ProfileRoutingModule&#45;&gt;AppModule -->
<g id="edge10" class="edge">
<title>ProfileRoutingModule&#45;&gt;AppModule</title>
<path fill="none" stroke="#000000" d="M724,-122.0336C724,-139.0597 724,-162 724,-162 724,-162 983.0572,-162 983.0572,-162"/>
<polygon fill="#000000" stroke="#000000" points="983.0572,-165.5001 993.0572,-162 983.0571,-158.5001 983.0572,-165.5001"/>
</g>
<!-- ProposalModule -->
<g id="node12" class="node">
<title>ProposalModule</title>
<polygon fill="#8dd3c7" stroke="#000000" points="634.0438,-122 631.0438,-126 610.0438,-126 607.0438,-122 525.9562,-122 525.9562,-86 634.0438,-86 634.0438,-122"/>
<text text-anchor="middle" x="580" y="-99.8" font-family="Times,serif" font-size="14.00" fill="#000000">ProposalModule</text>
</g>
<!-- ProposalModule&#45;&gt;AppModule -->
<g id="edge11" class="edge">
<title>ProposalModule&#45;&gt;AppModule</title>
<path fill="none" stroke="#000000" d="M580,-122.2222C580,-140.8285 580,-167 580,-167 580,-167 983.0103,-167 983.0103,-167"/>
<polygon fill="#000000" stroke="#000000" points="983.0103,-170.5001 993.0103,-167 983.0102,-163.5001 983.0103,-170.5001"/>
</g>
<!-- ProposalRoutingModule -->
<g id="node13" class="node">
<title>ProposalRoutingModule</title>
<polygon fill="#8dd3c7" stroke="#000000" points="507.661,-122 504.661,-126 483.661,-126 480.661,-122 354.339,-122 354.339,-86 507.661,-86 507.661,-122"/>
<text text-anchor="middle" x="431" y="-99.8" font-family="Times,serif" font-size="14.00" fill="#000000">ProposalRoutingModule</text>
</g>
<!-- ProposalRoutingModule&#45;&gt;AppModule -->
<g id="edge12" class="edge">
<title>ProposalRoutingModule&#45;&gt;AppModule</title>
<path fill="none" stroke="#000000" d="M431,-122.2228C431,-142.3652 431,-172 431,-172 431,-172 983.0074,-172 983.0074,-172"/>
<polygon fill="#000000" stroke="#000000" points="983.0075,-175.5001 993.0074,-172 983.0074,-168.5001 983.0075,-175.5001"/>
</g>
<!-- SwapBoardModule -->
<g id="node14" class="node">
<title>SwapBoardModule</title>
<polygon fill="#8dd3c7" stroke="#000000" points="336.3655,-122 333.3655,-126 312.3655,-126 309.3655,-122 211.6345,-122 211.6345,-86 336.3655,-86 336.3655,-122"/>
<text text-anchor="middle" x="274" y="-99.8" font-family="Times,serif" font-size="14.00" fill="#000000">SwapBoardModule</text>
</g>
<!-- SwapBoardModule&#45;&gt;AppModule -->
<g id="edge13" class="edge">
<title>SwapBoardModule&#45;&gt;AppModule</title>
<path fill="none" stroke="#000000" d="M274,-122.0449C274,-143.6623 274,-177 274,-177 274,-177 983.2735,-177 983.2735,-177"/>
<polygon fill="#000000" stroke="#000000" points="983.2736,-180.5001 993.2735,-177 983.2735,-173.5001 983.2736,-180.5001"/>
</g>
<!-- SwapBoardRoutingModule -->
<g id="node15" class="node">
<title>SwapBoardRoutingModule</title>
<polygon fill="#8dd3c7" stroke="#000000" points="193.9832,-122 190.9832,-126 169.9832,-126 166.9832,-122 24.0168,-122 24.0168,-86 193.9832,-86 193.9832,-122"/>
<text text-anchor="middle" x="109" y="-99.8" font-family="Times,serif" font-size="14.00" fill="#000000">SwapBoardRoutingModule</text>
</g>
<!-- SwapBoardRoutingModule&#45;&gt;AppModule -->
<g id="edge14" class="edge">
<title>SwapBoardRoutingModule&#45;&gt;AppModule</title>
<path fill="none" stroke="#000000" d="M109,-122.0908C109,-145.1328 109,-182 109,-182 109,-182 983.1096,-182 983.1096,-182"/>
<polygon fill="#000000" stroke="#000000" points="983.1096,-185.5001 993.1096,-182 983.1096,-178.5001 983.1096,-185.5001"/>
</g>
</g>
</svg>
