<?xml version="1.0" encoding="UTF-8" standalone="no"?>
<!DOCTYPE svg PUBLIC "-//W3C//DTD SVG 1.1//EN"
 "http://www.w3.org/Graphics/SVG/1.1/DTD/svg11.dtd">
<!-- Generated by graphviz version 2.40.1 (20161225.0304)
 -->
<!-- Title: dependencies Pages: 1 -->
<svg width="513pt" height="211pt"
 viewBox="0.00 0.00 513.00 211.00" xmlns="http://www.w3.org/2000/svg" xmlns:xlink="http://www.w3.org/1999/xlink">
<g id="graph0" class="graph" transform="scale(1 1) rotate(0) translate(4 207)">
<title>dependencies</title>
<polygon fill="#ffffff" stroke="transparent" points="-4,4 -4,-207 509,-207 509,4 -4,4"/>
<text text-anchor="start" x="231.5091" y="-42.4" font-family="sans-serif" font-weight="bold" font-size="14.00" fill="#000000">Legend</text>
<polygon fill="#ffffb3" stroke="transparent" points="18.5,-10 18.5,-30 38.5,-30 38.5,-10 18.5,-10"/>
<text text-anchor="start" x="42.129" y="-15.4" font-family="sans-serif" font-size="14.00" fill="#000000"> &#160;Declarations</text>
<polygon fill="#8dd3c7" stroke="transparent" points="131.5,-10 131.5,-30 151.5,-30 151.5,-10 131.5,-10"/>
<text text-anchor="start" x="155.2251" y="-15.4" font-family="sans-serif" font-size="14.00" fill="#000000"> &#160;Module</text>
<polygon fill="#80b1d3" stroke="transparent" points="217.5,-10 217.5,-30 237.5,-30 237.5,-10 217.5,-10"/>
<text text-anchor="start" x="241.2812" y="-15.4" font-family="sans-serif" font-size="14.00" fill="#000000"> &#160;Bootstrap</text>
<polygon fill="#fdb462" stroke="transparent" points="314.5,-10 314.5,-30 334.5,-30 334.5,-10 314.5,-10"/>
<text text-anchor="start" x="338.1732" y="-15.4" font-family="sans-serif" font-size="14.00" fill="#000000"> &#160;Providers</text>
<polygon fill="#fb8072" stroke="transparent" points="410.5,-10 410.5,-30 430.5,-30 430.5,-10 410.5,-10"/>
<text text-anchor="start" x="434.2258" y="-15.4" font-family="sans-serif" font-size="14.00" fill="#000000"> &#160;Exports</text>
<g id="clust1" class="cluster">
<title>cluster_ProposalModule</title>
<polygon fill="none" stroke="#000000" stroke-dasharray="1,5" points="8,-70 8,-195 497,-195 497,-70 8,-70"/>
</g>
<g id="clust2" class="cluster">
<title>cluster_ProposalModule_declarations</title>
<polygon fill="none" stroke="#000000" points="126,-78 126,-130 489,-130 489,-78 126,-78"/>
</g>
<g id="clust5" class="cluster">
<title>cluster_ProposalModule_imports</title>
<polygon fill="none" stroke="#000000" points="16,-78 16,-130 118,-130 118,-78 16,-78"/>
</g>
<!-- ProposalBoardComponent -->
<g id="node1" class="node">
<title>ProposalBoardComponent</title>
<polygon fill="#ffffb3" stroke="#000000" points="481.0378,-122 316.9622,-122 316.9622,-86 481.0378,-86 481.0378,-122"/>
<text text-anchor="middle" x="399" y="-99.8" font-family="Times,serif" font-size="14.00" fill="#000000">ProposalBoardComponent</text>
</g>
<!-- ProposalModule -->
<g id="node3" class="node">
<title>ProposalModule</title>
<polygon fill="#8dd3c7" stroke="#000000" points="270.0438,-187 267.0438,-191 246.0438,-191 243.0438,-187 161.9562,-187 161.9562,-151 270.0438,-151 270.0438,-187"/>
<text text-anchor="middle" x="216" y="-164.8" font-family="Times,serif" font-size="14.00" fill="#000000">ProposalModule</text>
</g>
<!-- ProposalBoardComponent&#45;&gt;ProposalModule -->
<g id="edge1" class="edge">
<title>ProposalBoardComponent&#45;&gt;ProposalModule</title>
<path fill="none" stroke="#000000" d="M399,-122.1061C399,-141.3391 399,-169 399,-169 399,-169 280.4106,-169 280.4106,-169"/>
<polygon fill="#000000" stroke="#000000" points="280.4106,-165.5001 270.4106,-169 280.4105,-172.5001 280.4106,-165.5001"/>
</g>
<!-- ProposalDetailComponent -->
<g id="node2" class="node">
<title>ProposalDetailComponent</title>
<polygon fill="#ffffb3" stroke="#000000" points="298.0337,-122 133.9663,-122 133.9663,-86 298.0337,-86 298.0337,-122"/>
<text text-anchor="middle" x="216" y="-99.8" font-family="Times,serif" font-size="14.00" fill="#000000">ProposalDetailComponent</text>
</g>
<!-- ProposalDetailComponent&#45;&gt;ProposalModule -->
<g id="edge2" class="edge">
<title>ProposalDetailComponent&#45;&gt;ProposalModule</title>
<path fill="none" stroke="#000000" d="M216,-122.1061C216,-122.1061 216,-140.991 216,-140.991"/>
<polygon fill="#000000" stroke="#000000" points="212.5001,-140.9909 216,-150.991 219.5001,-140.991 212.5001,-140.9909"/>
</g>
<!-- CoreModule -->
<g id="node4" class="node">
<title>CoreModule</title>
<polygon fill="#8dd3c7" stroke="#000000" points="110.2619,-122 107.2619,-126 86.2619,-126 83.2619,-122 23.7381,-122 23.7381,-86 110.2619,-86 110.2619,-122"/>
<text text-anchor="middle" x="67" y="-99.8" font-family="Times,serif" font-size="14.00" fill="#000000">CoreModule</text>
</g>
<!-- CoreModule&#45;&gt;ProposalModule -->
<g id="edge3" class="edge">
<title>CoreModule&#45;&gt;ProposalModule</title>
<path fill="none" stroke="#000000" d="M67,-122.1061C67,-141.3391 67,-169 67,-169 67,-169 151.7861,-169 151.7861,-169"/>
<polygon fill="#000000" stroke="#000000" points="151.7861,-172.5001 161.7861,-169 151.7861,-165.5001 151.7861,-172.5001"/>
</g>
</g>
</svg>
