<?xml version="1.0" encoding="UTF-8" standalone="no"?>
<!DOCTYPE svg PUBLIC "-//W3C//DTD SVG 1.1//EN"
 "http://www.w3.org/Graphics/SVG/1.1/DTD/svg11.dtd">
<!-- Generated by graphviz version 2.40.1 (20161225.0304)
 -->
<!-- Title: dependencies Pages: 1 -->
<svg width="504pt" height="211pt"
 viewBox="0.00 0.00 504.00 211.00" xmlns="http://www.w3.org/2000/svg" xmlns:xlink="http://www.w3.org/1999/xlink">
<g id="graph0" class="graph" transform="scale(1 1) rotate(0) translate(4 207)">
<title>dependencies</title>
<polygon fill="#ffffff" stroke="transparent" points="-4,4 -4,-207 500,-207 500,4 -4,4"/>
<text text-anchor="start" x="227.0091" y="-42.4" font-family="sans-serif" font-weight="bold" font-size="14.00" fill="#000000">Legend</text>
<polygon fill="#ffffb3" stroke="transparent" points="14,-10 14,-30 34,-30 34,-10 14,-10"/>
<text text-anchor="start" x="37.629" y="-15.4" font-family="sans-serif" font-size="14.00" fill="#000000"> &#160;Declarations</text>
<polygon fill="#8dd3c7" stroke="transparent" points="127,-10 127,-30 147,-30 147,-10 127,-10"/>
<text text-anchor="start" x="150.7251" y="-15.4" font-family="sans-serif" font-size="14.00" fill="#000000"> &#160;Module</text>
<polygon fill="#80b1d3" stroke="transparent" points="213,-10 213,-30 233,-30 233,-10 213,-10"/>
<text text-anchor="start" x="236.7812" y="-15.4" font-family="sans-serif" font-size="14.00" fill="#000000"> &#160;Bootstrap</text>
<polygon fill="#fdb462" stroke="transparent" points="310,-10 310,-30 330,-30 330,-10 310,-10"/>
<text text-anchor="start" x="333.6732" y="-15.4" font-family="sans-serif" font-size="14.00" fill="#000000"> &#160;Providers</text>
<polygon fill="#fb8072" stroke="transparent" points="406,-10 406,-30 426,-30 426,-10 406,-10"/>
<text text-anchor="start" x="429.7258" y="-15.4" font-family="sans-serif" font-size="14.00" fill="#000000"> &#160;Exports</text>
<g id="clust1" class="cluster">
<title>cluster_ProposalModule</title>
<polygon fill="none" stroke="#000000" stroke-dasharray="1,5" points="58.5,-70 58.5,-195 437.5,-195 437.5,-70 58.5,-70"/>
</g>
<g id="clust2" class="cluster">
<title>cluster_ProposalModule_declarations</title>
<polygon fill="none" stroke="#000000" points="66.5,-78 66.5,-130 429.5,-130 429.5,-78 66.5,-78"/>
</g>
<!-- ProposalBoardComponent -->
<g id="node1" class="node">
<title>ProposalBoardComponent</title>
<polygon fill="#ffffb3" stroke="#000000" points="421.5378,-122 257.4622,-122 257.4622,-86 421.5378,-86 421.5378,-122"/>
<text text-anchor="middle" x="339.5" y="-99.8" font-family="Times,serif" font-size="14.00" fill="#000000">ProposalBoardComponent</text>
</g>
<!-- ProposalModule -->
<g id="node3" class="node">
<title>ProposalModule</title>
<polygon fill="#8dd3c7" stroke="#000000" points="301.5438,-187 298.5438,-191 277.5438,-191 274.5438,-187 193.4562,-187 193.4562,-151 301.5438,-151 301.5438,-187"/>
<text text-anchor="middle" x="247.5" y="-164.8" font-family="Times,serif" font-size="14.00" fill="#000000">ProposalModule</text>
</g>
<!-- ProposalBoardComponent&#45;&gt;ProposalModule -->
<g id="edge1" class="edge">
<title>ProposalBoardComponent&#45;&gt;ProposalModule</title>
<path fill="none" stroke="#000000" d="M279.5014,-122.1061C279.5014,-122.1061 279.5014,-140.991 279.5014,-140.991"/>
<polygon fill="#000000" stroke="#000000" points="276.0015,-140.9909 279.5014,-150.991 283.0015,-140.991 276.0015,-140.9909"/>
</g>
<!-- ProposalDetailComponent -->
<g id="node2" class="node">
<title>ProposalDetailComponent</title>
<polygon fill="#ffffb3" stroke="#000000" points="238.5337,-122 74.4663,-122 74.4663,-86 238.5337,-86 238.5337,-122"/>
<text text-anchor="middle" x="156.5" y="-99.8" font-family="Times,serif" font-size="14.00" fill="#000000">ProposalDetailComponent</text>
</g>
<!-- ProposalDetailComponent&#45;&gt;ProposalModule -->
<g id="edge2" class="edge">
<title>ProposalDetailComponent&#45;&gt;ProposalModule</title>
<path fill="none" stroke="#000000" d="M215.9976,-122.1061C215.9976,-122.1061 215.9976,-140.991 215.9976,-140.991"/>
<polygon fill="#000000" stroke="#000000" points="212.4976,-140.9909 215.9976,-150.991 219.4976,-140.991 212.4976,-140.9909"/>
</g>
</g>
</svg>
