<?xml version="1.0" encoding="UTF-8" standalone="no"?>
<!DOCTYPE svg PUBLIC "-//W3C//DTD SVG 1.1//EN"
 "http://www.w3.org/Graphics/SVG/1.1/DTD/svg11.dtd">
<!-- Generated by graphviz version 2.40.1 (20161225.0304)
 -->
<!-- Title: dependencies Pages: 1 -->
<svg width="896pt" height="211pt"
 viewBox="0.00 0.00 896.00 211.00" xmlns="http://www.w3.org/2000/svg" xmlns:xlink="http://www.w3.org/1999/xlink">
<g id="graph0" class="graph" transform="scale(1 1) rotate(0) translate(4 207)">
<title>dependencies</title>
<polygon fill="#ffffff" stroke="transparent" points="-4,4 -4,-207 892,-207 892,4 -4,4"/>
<text text-anchor="start" x="423.0091" y="-42.4" font-family="sans-serif" font-weight="bold" font-size="14.00" fill="#000000">Legend</text>
<polygon fill="#ffffb3" stroke="transparent" points="210,-10 210,-30 230,-30 230,-10 210,-10"/>
<text text-anchor="start" x="233.629" y="-15.4" font-family="sans-serif" font-size="14.00" fill="#000000"> &#160;Declarations</text>
<polygon fill="#8dd3c7" stroke="transparent" points="323,-10 323,-30 343,-30 343,-10 323,-10"/>
<text text-anchor="start" x="346.7251" y="-15.4" font-family="sans-serif" font-size="14.00" fill="#000000"> &#160;Module</text>
<polygon fill="#80b1d3" stroke="transparent" points="409,-10 409,-30 429,-30 429,-10 409,-10"/>
<text text-anchor="start" x="432.7812" y="-15.4" font-family="sans-serif" font-size="14.00" fill="#000000"> &#160;Bootstrap</text>
<polygon fill="#fdb462" stroke="transparent" points="506,-10 506,-30 526,-30 526,-10 506,-10"/>
<text text-anchor="start" x="529.6732" y="-15.4" font-family="sans-serif" font-size="14.00" fill="#000000"> &#160;Providers</text>
<polygon fill="#fb8072" stroke="transparent" points="602,-10 602,-30 622,-30 622,-10 602,-10"/>
<text text-anchor="start" x="625.7258" y="-15.4" font-family="sans-serif" font-size="14.00" fill="#000000"> &#160;Exports</text>
<g id="clust1" class="cluster">
<title>cluster_SwapBoardModule</title>
<polygon fill="none" stroke="#000000" stroke-dasharray="1,5" points="8,-70 8,-195 880,-195 880,-70 8,-70"/>
</g>
<g id="clust2" class="cluster">
<title>cluster_SwapBoardModule_declarations</title>
<polygon fill="none" stroke="#000000" points="126,-78 126,-130 872,-130 872,-78 126,-78"/>
</g>
<g id="clust7" class="cluster">
<title>cluster_SwapBoardModule_imports</title>
<polygon fill="none" stroke="#000000" points="16,-78 16,-130 118,-130 118,-78 16,-78"/>
</g>
<!-- AddEditItemDialogComponent -->
<g id="node1" class="node">
<title>AddEditItemDialogComponent</title>
<polygon fill="#ffffb3" stroke="#000000" points="864.0322,-122 671.9678,-122 671.9678,-86 864.0322,-86 864.0322,-122"/>
<text text-anchor="middle" x="768" y="-99.8" font-family="Times,serif" font-size="14.00" fill="#000000">AddEditItemDialogComponent</text>
</g>
<!-- SwapBoardModule -->
<g id="node5" class="node">
<title>SwapBoardModule</title>
<polygon fill="#8dd3c7" stroke="#000000" points="484.3655,-187 481.3655,-191 460.3655,-191 457.3655,-187 359.6345,-187 359.6345,-151 484.3655,-151 484.3655,-187"/>
<text text-anchor="middle" x="422" y="-164.8" font-family="Times,serif" font-size="14.00" fill="#000000">SwapBoardModule</text>
</g>
<!-- AddEditItemDialogComponent&#45;&gt;SwapBoardModule -->
<g id="edge1" class="edge">
<title>AddEditItemDialogComponent&#45;&gt;SwapBoardModule</title>
<path fill="none" stroke="#000000" d="M768,-122.2843C768,-143.3211 768,-175 768,-175 768,-175 494.658,-175 494.658,-175"/>
<polygon fill="#000000" stroke="#000000" points="494.658,-171.5001 484.658,-175 494.658,-178.5001 494.658,-171.5001"/>
</g>
<!-- ItemDetailComponent -->
<g id="node2" class="node">
<title>ItemDetailComponent</title>
<polygon fill="#ffffb3" stroke="#000000" points="653.6965,-122 512.3035,-122 512.3035,-86 653.6965,-86 653.6965,-122"/>
<text text-anchor="middle" x="583" y="-99.8" font-family="Times,serif" font-size="14.00" fill="#000000">ItemDetailComponent</text>
</g>
<!-- ItemDetailComponent&#45;&gt;SwapBoardModule -->
<g id="edge2" class="edge">
<title>ItemDetailComponent&#45;&gt;SwapBoardModule</title>
<path fill="none" stroke="#000000" d="M583,-122.0225C583,-139.3734 583,-163 583,-163 583,-163 494.7078,-163 494.7078,-163"/>
<polygon fill="#000000" stroke="#000000" points="494.7078,-159.5001 484.7078,-163 494.7078,-166.5001 494.7078,-159.5001"/>
</g>
<!-- MainBoardComponent -->
<g id="node3" class="node">
<title>MainBoardComponent</title>
<polygon fill="#ffffb3" stroke="#000000" points="494.594,-122 349.406,-122 349.406,-86 494.594,-86 494.594,-122"/>
<text text-anchor="middle" x="422" y="-99.8" font-family="Times,serif" font-size="14.00" fill="#000000">MainBoardComponent</text>
</g>
<!-- MainBoardComponent&#45;&gt;SwapBoardModule -->
<g id="edge3" class="edge">
<title>MainBoardComponent&#45;&gt;SwapBoardModule</title>
<path fill="none" stroke="#000000" d="M422,-122.1061C422,-122.1061 422,-140.991 422,-140.991"/>
<polygon fill="#000000" stroke="#000000" points="418.5001,-140.9909 422,-150.991 425.5001,-140.991 418.5001,-140.9909"/>
</g>
<!-- ProposeTradeDialogComponent -->
<g id="node4" class="node">
<title>ProposeTradeDialogComponent</title>
<polygon fill="#ffffb3" stroke="#000000" points="331.6797,-122 134.3203,-122 134.3203,-86 331.6797,-86 331.6797,-122"/>
<text text-anchor="middle" x="233" y="-99.8" font-family="Times,serif" font-size="14.00" fill="#000000">ProposeTradeDialogComponent</text>
</g>
<!-- ProposeTradeDialogComponent&#45;&gt;SwapBoardModule -->
<g id="edge4" class="edge">
<title>ProposeTradeDialogComponent&#45;&gt;SwapBoardModule</title>
<path fill="none" stroke="#000000" d="M233,-122.0225C233,-139.3734 233,-163 233,-163 233,-163 349.5905,-163 349.5905,-163"/>
<polygon fill="#000000" stroke="#000000" points="349.5906,-166.5001 359.5905,-163 349.5905,-159.5001 349.5906,-166.5001"/>
</g>
<!-- CoreModule -->
<g id="node6" class="node">
<title>CoreModule</title>
<polygon fill="#8dd3c7" stroke="#000000" points="110.2619,-122 107.2619,-126 86.2619,-126 83.2619,-122 23.7381,-122 23.7381,-86 110.2619,-86 110.2619,-122"/>
<text text-anchor="middle" x="67" y="-99.8" font-family="Times,serif" font-size="14.00" fill="#000000">CoreModule</text>
</g>
<!-- CoreModule&#45;&gt;SwapBoardModule -->
<g id="edge5" class="edge">
<title>CoreModule&#45;&gt;SwapBoardModule</title>
<path fill="none" stroke="#000000" d="M67,-122.2843C67,-143.3211 67,-175 67,-175 67,-175 349.3503,-175 349.3503,-175"/>
<polygon fill="#000000" stroke="#000000" points="349.3503,-178.5001 359.3503,-175 349.3503,-171.5001 349.3503,-178.5001"/>
</g>
</g>
</svg>
