<?xml version="1.0" encoding="UTF-8" standalone="no"?>
<!DOCTYPE svg PUBLIC "-//W3C//DTD SVG 1.1//EN"
 "http://www.w3.org/Graphics/SVG/1.1/DTD/svg11.dtd">
<!-- Generated by graphviz version 2.40.1 (20161225.0304)
 -->
<!-- Title: dependencies Pages: 1 -->
<svg width="3561pt" height="431pt"
 viewBox="0.00 0.00 3561.00 431.00" xmlns="http://www.w3.org/2000/svg" xmlns:xlink="http://www.w3.org/1999/xlink">
<g id="graph0" class="graph" transform="scale(1 1) rotate(0) translate(4 427)">
<title>dependencies</title>
<polygon fill="#ffffff" stroke="transparent" points="-4,4 -4,-427 3557,-427 3557,4 -4,4"/>
<text text-anchor="start" x="1755.5091" y="-42.4" font-family="sans-serif" font-weight="bold" font-size="14.00" fill="#000000">Legend</text>
<polygon fill="#ffffb3" stroke="transparent" points="1542.5,-10 1542.5,-30 1562.5,-30 1562.5,-10 1542.5,-10"/>
<text text-anchor="start" x="1566.129" y="-15.4" font-family="sans-serif" font-size="14.00" fill="#000000"> &#160;Declarations</text>
<polygon fill="#8dd3c7" stroke="transparent" points="1655.5,-10 1655.5,-30 1675.5,-30 1675.5,-10 1655.5,-10"/>
<text text-anchor="start" x="1679.2251" y="-15.4" font-family="sans-serif" font-size="14.00" fill="#000000"> &#160;Module</text>
<polygon fill="#80b1d3" stroke="transparent" points="1741.5,-10 1741.5,-30 1761.5,-30 1761.5,-10 1741.5,-10"/>
<text text-anchor="start" x="1765.2812" y="-15.4" font-family="sans-serif" font-size="14.00" fill="#000000"> &#160;Bootstrap</text>
<polygon fill="#fdb462" stroke="transparent" points="1838.5,-10 1838.5,-30 1858.5,-30 1858.5,-10 1838.5,-10"/>
<text text-anchor="start" x="1862.1732" y="-15.4" font-family="sans-serif" font-size="14.00" fill="#000000"> &#160;Providers</text>
<polygon fill="#fb8072" stroke="transparent" points="1934.5,-10 1934.5,-30 1954.5,-30 1954.5,-10 1934.5,-10"/>
<text text-anchor="start" x="1958.2258" y="-15.4" font-family="sans-serif" font-size="14.00" fill="#000000"> &#160;Exports</text>
<g id="clust1" class="cluster">
<title>cluster_AdminModule</title>
<polygon fill="none" stroke="#000000" stroke-dasharray="1,5" points="8,-146 8,-347 752,-347 752,-146 8,-146"/>
</g>
<g id="clust2" class="cluster">
<title>cluster_AdminModule_declarations</title>
<polygon fill="none" stroke="#000000" points="16,-154 16,-206 744,-206 744,-154 16,-154"/>
</g>
<g id="clust8" class="cluster">
<title>cluster_AdminModule_exports</title>
<polygon fill="none" stroke="#000000" points="197,-287 197,-339 739,-339 739,-287 197,-287"/>
</g>
<g id="clust17" class="cluster">
<title>cluster_AppModule</title>
<polygon fill="none" stroke="#000000" stroke-dasharray="1,5" points="760,-146 760,-415 2387,-415 2387,-146 760,-146"/>
</g>
<g id="clust18" class="cluster">
<title>cluster_AppModule_declarations</title>
<polygon fill="none" stroke="#000000" points="1823,-222 1823,-274 2379,-274 2379,-222 1823,-222"/>
</g>
<g id="clust23" class="cluster">
<title>cluster_AppModule_imports</title>
<polygon fill="none" stroke="#000000" points="768,-154 768,-274 1815,-274 1815,-154 768,-154"/>
</g>
<g id="clust25" class="cluster">
<title>cluster_AppModule_bootstrap</title>
<polygon fill="none" stroke="#000000" points="1465,-355 1465,-407 1589,-407 1589,-355 1465,-355"/>
</g>
<g id="clust33" class="cluster">
<title>cluster_CoreModule</title>
<polygon fill="none" stroke="#000000" stroke-dasharray="1,5" points="607,-70 607,-138 2387,-138 2387,-70 607,-70"/>
</g>
<g id="clust34" class="cluster">
<title>cluster_CoreModule_declarations</title>
<polygon fill="none" stroke="#000000" points="1722,-78 1722,-130 2379,-130 2379,-78 1722,-78"/>
</g>
<g id="clust41" class="cluster">
<title>cluster_CoreModule_exports</title>
<polygon fill="none" stroke="#000000" points="1037,-78 1037,-130 1714,-130 1714,-78 1037,-78"/>
</g>
<g id="clust43" class="cluster">
<title>cluster_CoreModule_providers</title>
<polygon fill="none" stroke="#000000" points="615,-78 615,-130 1029,-130 1029,-78 615,-78"/>
</g>
<g id="clust44" class="cluster">
<title>cluster_ProfileModule</title>
<polygon fill="none" stroke="#000000" stroke-dasharray="1,5" points="2395,-70 2395,-138 2737,-138 2737,-70 2395,-70"/>
</g>
<g id="clust45" class="cluster">
<title>cluster_ProfileModule_declarations</title>
<polygon fill="none" stroke="#000000" points="2403,-78 2403,-130 2729,-130 2729,-78 2403,-78"/>
</g>
<g id="clust58" class="cluster">
<title>cluster_ProposalModule</title>
<polygon fill="none" stroke="#000000" stroke-dasharray="1,5" points="2395,-146 2395,-214 2774,-214 2774,-146 2395,-146"/>
</g>
<g id="clust59" class="cluster">
<title>cluster_ProposalModule_declarations</title>
<polygon fill="none" stroke="#000000" points="2403,-154 2403,-206 2766,-206 2766,-154 2403,-154"/>
</g>
<g id="clust72" class="cluster">
<title>cluster_SwapBoardModule</title>
<polygon fill="none" stroke="#000000" stroke-dasharray="1,5" points="2782,-146 2782,-214 3545,-214 3545,-146 2782,-146"/>
</g>
<g id="clust73" class="cluster">
<title>cluster_SwapBoardModule_declarations</title>
<polygon fill="none" stroke="#000000" points="2790,-154 2790,-206 3537,-206 3537,-154 2790,-154"/>
</g>
<!-- AdminBeersComponent -->
<g id="node1" class="node">
<title>AdminBeersComponent</title>
<polygon fill="#ffffb3" stroke="#000000" points="374.0912,-198 221.9088,-198 221.9088,-162 374.0912,-162 374.0912,-198"/>
<text text-anchor="middle" x="298" y="-175.8" font-family="Times,serif" font-size="14.00" fill="#000000">AdminBeersComponent</text>
</g>
<!-- AdminModule -->
<g id="node5" class="node">
<title>AdminModule</title>
<polygon fill="#8dd3c7" stroke="#000000" points="517.4386,-266 514.4386,-270 493.4386,-270 490.4386,-266 418.5614,-266 418.5614,-230 517.4386,-230 517.4386,-266"/>
<text text-anchor="middle" x="468" y="-243.8" font-family="Times,serif" font-size="14.00" fill="#000000">AdminModule</text>
</g>
<!-- AdminBeersComponent&#45;&gt;AdminModule -->
<g id="edge1" class="edge">
<title>AdminBeersComponent&#45;&gt;AdminModule</title>
<path fill="none" stroke="#000000" d="M367.4206,-198.0225C367.4206,-215.3734 367.4206,-239 367.4206,-239 367.4206,-239 408.5943,-239 408.5943,-239"/>
<polygon fill="#000000" stroke="#000000" points="408.5943,-242.5001 418.5943,-239 408.5942,-235.5001 408.5943,-242.5001"/>
</g>
<!-- AdminDashboardComponent -->
<g id="node2" class="node">
<title>AdminDashboardComponent</title>
<polygon fill="#ffffb3" stroke="#000000" points="204.3613,-198 23.6387,-198 23.6387,-162 204.3613,-162 204.3613,-198"/>
<text text-anchor="middle" x="114" y="-175.8" font-family="Times,serif" font-size="14.00" fill="#000000">AdminDashboardComponent</text>
</g>
<!-- AdminDashboardComponent&#45;&gt;AdminModule -->
<g id="edge2" class="edge">
<title>AdminDashboardComponent&#45;&gt;AdminModule</title>
<path fill="none" stroke="#000000" d="M114,-198.2228C114,-218.3652 114,-248 114,-248 114,-248 408.7778,-248 408.7778,-248"/>
<polygon fill="#000000" stroke="#000000" points="408.7779,-251.5001 418.7778,-248 408.7778,-244.5001 408.7779,-251.5001"/>
</g>
<!-- AdminProposalsComponent -->
<g id="node3" class="node">
<title>AdminProposalsComponent</title>
<polygon fill="#ffffb3" stroke="#000000" points="736.1581,-198 561.8419,-198 561.8419,-162 736.1581,-162 736.1581,-198"/>
<text text-anchor="middle" x="649" y="-175.8" font-family="Times,serif" font-size="14.00" fill="#000000">AdminProposalsComponent</text>
</g>
<!-- AdminProposalsComponent&#45;&gt;AdminModule -->
<g id="edge3" class="edge">
<title>AdminProposalsComponent&#45;&gt;AdminModule</title>
<path fill="none" stroke="#000000" d="M568.4378,-198.0225C568.4378,-215.3734 568.4378,-239 568.4378,-239 568.4378,-239 527.3362,-239 527.3362,-239"/>
<polygon fill="#000000" stroke="#000000" points="527.3362,-235.5001 517.3362,-239 527.3361,-242.5001 527.3362,-235.5001"/>
</g>
<!-- AdminUsersComponent -->
<g id="node4" class="node">
<title>AdminUsersComponent</title>
<polygon fill="#ffffb3" stroke="#000000" points="544.0912,-198 391.9088,-198 391.9088,-162 544.0912,-162 544.0912,-198"/>
<text text-anchor="middle" x="468" y="-175.8" font-family="Times,serif" font-size="14.00" fill="#000000">AdminUsersComponent</text>
</g>
<!-- AdminUsersComponent&#45;&gt;AdminModule -->
<g id="edge4" class="edge">
<title>AdminUsersComponent&#45;&gt;AdminModule</title>
<path fill="none" stroke="#000000" d="M468,-198.2228C468,-198.2228 468,-219.7269 468,-219.7269"/>
<polygon fill="#000000" stroke="#000000" points="464.5001,-219.7269 468,-229.7269 471.5001,-219.727 464.5001,-219.7269"/>
</g>
<!-- AdminBeersComponent  -->
<g id="node6" class="node">
<title>AdminBeersComponent </title>
<polygon fill="#fb8072" stroke="#000000" points="730.5917,-331 575.4083,-331 575.4083,-295 730.5917,-295 730.5917,-331"/>
<text text-anchor="middle" x="653" y="-308.8" font-family="Times,serif" font-size="14.00" fill="#000000">AdminBeersComponent </text>
</g>
<!-- AdminModule&#45;&gt;AdminBeersComponent  -->
<g id="edge5" class="edge">
<title>AdminModule&#45;&gt;AdminBeersComponent </title>
<path fill="none" stroke="#000000" stroke-dasharray="5,2" d="M517.5766,-257C572.3758,-257 653,-257 653,-257 653,-257 653,-284.973 653,-284.973"/>
<polygon fill="#000000" stroke="#000000" points="649.5001,-284.973 653,-294.973 656.5001,-284.973 649.5001,-284.973"/>
</g>
<!-- AdminProposalsComponent  -->
<g id="node7" class="node">
<title>AdminProposalsComponent </title>
<polygon fill="#fb8072" stroke="#000000" points="557.1579,-331 378.8421,-331 378.8421,-295 557.1579,-295 557.1579,-331"/>
<text text-anchor="middle" x="468" y="-308.8" font-family="Times,serif" font-size="14.00" fill="#000000">AdminProposalsComponent </text>
</g>
<!-- AdminModule&#45;&gt;AdminProposalsComponent  -->
<g id="edge6" class="edge">
<title>AdminModule&#45;&gt;AdminProposalsComponent </title>
<path fill="none" stroke="#000000" stroke-dasharray="5,2" d="M468,-266.1061C468,-266.1061 468,-284.991 468,-284.991"/>
<polygon fill="#000000" stroke="#000000" points="464.5001,-284.9909 468,-294.991 471.5001,-284.991 464.5001,-284.9909"/>
</g>
<!-- AdminUsersComponent  -->
<g id="node8" class="node">
<title>AdminUsersComponent </title>
<polygon fill="#fb8072" stroke="#000000" points="360.5917,-331 205.4083,-331 205.4083,-295 360.5917,-295 360.5917,-331"/>
<text text-anchor="middle" x="283" y="-308.8" font-family="Times,serif" font-size="14.00" fill="#000000">AdminUsersComponent </text>
</g>
<!-- AdminModule&#45;&gt;AdminUsersComponent  -->
<g id="edge7" class="edge">
<title>AdminModule&#45;&gt;AdminUsersComponent </title>
<path fill="none" stroke="#000000" stroke-dasharray="5,2" d="M418.3301,-257C366.0888,-257 291.375,-257 291.375,-257 291.375,-257 291.375,-284.973 291.375,-284.973"/>
<polygon fill="#000000" stroke="#000000" points="287.8751,-284.973 291.375,-294.973 294.8751,-284.973 287.8751,-284.973"/>
</g>
<!-- AppModule -->
<g id="node13" class="node">
<title>AppModule</title>
<polygon fill="#8dd3c7" stroke="#000000" points="1568.6571,-331 1565.6571,-335 1544.6571,-335 1541.6571,-331 1485.3429,-331 1485.3429,-295 1568.6571,-295 1568.6571,-331"/>
<text text-anchor="middle" x="1527" y="-308.8" font-family="Times,serif" font-size="14.00" fill="#000000">AppModule</text>
</g>
<!-- AdminModule&#45;&gt;AppModule -->
<g id="edge12" class="edge">
<title>AdminModule&#45;&gt;AppModule</title>
<path fill="none" stroke="#000000" d="M517.5625,-248C723.7419,-248 1502.811,-248 1502.811,-248 1502.811,-248 1502.811,-284.8939 1502.811,-284.8939"/>
<polygon fill="#000000" stroke="#000000" points="1499.3111,-284.8938 1502.811,-294.8939 1506.3111,-284.8939 1499.3111,-284.8938"/>
</g>
<!-- AppComponent -->
<g id="node9" class="node">
<title>AppComponent</title>
<polygon fill="#ffffb3" stroke="#000000" points="2370.9399,-266 2265.0601,-266 2265.0601,-230 2370.9399,-230 2370.9399,-266"/>
<text text-anchor="middle" x="2318" y="-243.8" font-family="Times,serif" font-size="14.00" fill="#000000">AppComponent</text>
</g>
<!-- AppComponent&#45;&gt;AppModule -->
<g id="edge8" class="edge">
<title>AppComponent&#45;&gt;AppModule</title>
<path fill="none" stroke="#000000" d="M2318,-266.0908C2318,-289.1328 2318,-326 2318,-326 2318,-326 1578.6911,-326 1578.6911,-326"/>
<polygon fill="#000000" stroke="#000000" points="1578.6911,-322.5001 1568.6911,-326 1578.6911,-329.5001 1578.6911,-322.5001"/>
</g>
<!-- LoginComponent -->
<g id="node10" class="node">
<title>LoginComponent</title>
<polygon fill="#ffffb3" stroke="#000000" points="2247.2758,-266 2132.7242,-266 2132.7242,-230 2247.2758,-230 2247.2758,-266"/>
<text text-anchor="middle" x="2190" y="-243.8" font-family="Times,serif" font-size="14.00" fill="#000000">LoginComponent</text>
</g>
<!-- LoginComponent&#45;&gt;AppModule -->
<g id="edge9" class="edge">
<title>LoginComponent&#45;&gt;AppModule</title>
<path fill="none" stroke="#000000" d="M2190,-266.0449C2190,-287.6623 2190,-321 2190,-321 2190,-321 1578.7248,-321 1578.7248,-321"/>
<polygon fill="#000000" stroke="#000000" points="1578.7248,-317.5001 1568.7248,-321 1578.7247,-324.5001 1578.7248,-317.5001"/>
</g>
<!-- NotFoundComponent -->
<g id="node11" class="node">
<title>NotFoundComponent</title>
<polygon fill="#ffffb3" stroke="#000000" points="2115.1122,-266 1976.8878,-266 1976.8878,-230 2115.1122,-230 2115.1122,-266"/>
<text text-anchor="middle" x="2046" y="-243.8" font-family="Times,serif" font-size="14.00" fill="#000000">NotFoundComponent</text>
</g>
<!-- NotFoundComponent&#45;&gt;AppModule -->
<g id="edge10" class="edge">
<title>NotFoundComponent&#45;&gt;AppModule</title>
<path fill="none" stroke="#000000" d="M2046,-266.2228C2046,-286.3652 2046,-316 2046,-316 2046,-316 1579.0323,-316 1579.0323,-316"/>
<polygon fill="#000000" stroke="#000000" points="1579.0324,-312.5001 1569.0323,-316 1579.0323,-319.5001 1579.0324,-312.5001"/>
</g>
<!-- RegisterComponent -->
<g id="node12" class="node">
<title>RegisterComponent</title>
<polygon fill="#ffffb3" stroke="#000000" points="1958.9846,-266 1831.0154,-266 1831.0154,-230 1958.9846,-230 1958.9846,-266"/>
<text text-anchor="middle" x="1895" y="-243.8" font-family="Times,serif" font-size="14.00" fill="#000000">RegisterComponent</text>
</g>
<!-- RegisterComponent&#45;&gt;AppModule -->
<g id="edge11" class="edge">
<title>RegisterComponent&#45;&gt;AppModule</title>
<path fill="none" stroke="#000000" d="M1895,-266.2222C1895,-284.8285 1895,-311 1895,-311 1895,-311 1578.856,-311 1578.856,-311"/>
<polygon fill="#000000" stroke="#000000" points="1578.856,-307.5001 1568.856,-311 1578.856,-314.5001 1578.856,-307.5001"/>
</g>
<!-- AppComponent  -->
<g id="node23" class="node">
<title>AppComponent </title>
<polygon fill="#80b1d3" stroke="#000000" points="1581.439,-399 1472.561,-399 1472.561,-363 1581.439,-363 1581.439,-399"/>
<text text-anchor="middle" x="1527" y="-376.8" font-family="Times,serif" font-size="14.00" fill="#000000">AppComponent </text>
</g>
<!-- AppModule&#45;&gt;AppComponent  -->
<g id="edge22" class="edge">
<title>AppModule&#45;&gt;AppComponent </title>
<path fill="none" stroke="#000000" stroke-dasharray="1,5" d="M1527,-331.2228C1527,-331.2228 1527,-352.7269 1527,-352.7269"/>
<polygon fill="#000000" stroke="#000000" points="1523.5001,-352.7269 1527,-362.7269 1530.5001,-352.727 1523.5001,-352.7269"/>
</g>
<!-- AdminRoutingModule -->
<g id="node14" class="node">
<title>AdminRoutingModule</title>
<polygon fill="#8dd3c7" stroke="#000000" points="1586.5561,-198 1583.5561,-202 1562.5561,-202 1559.5561,-198 1443.4439,-198 1443.4439,-162 1586.5561,-162 1586.5561,-198"/>
<text text-anchor="middle" x="1515" y="-175.8" font-family="Times,serif" font-size="14.00" fill="#000000">AdminRoutingModule</text>
</g>
<!-- AdminRoutingModule&#45;&gt;AppModule -->
<g id="edge13" class="edge">
<title>AdminRoutingModule&#45;&gt;AppModule</title>
<path fill="none" stroke="#000000" d="M1520.4502,-198.2142C1520.4502,-198.2142 1520.4502,-284.579 1520.4502,-284.579"/>
<polygon fill="#000000" stroke="#000000" points="1516.9503,-284.5789 1520.4502,-294.579 1523.9503,-284.579 1516.9503,-284.5789"/>
</g>
<!-- AppRoutingModule -->
<g id="node15" class="node">
<title>AppRoutingModule</title>
<polygon fill="#8dd3c7" stroke="#000000" points="904.2744,-198 901.2744,-202 880.2744,-202 877.2744,-198 775.7256,-198 775.7256,-162 904.2744,-162 904.2744,-198"/>
<text text-anchor="middle" x="840" y="-175.8" font-family="Times,serif" font-size="14.00" fill="#000000">AppRoutingModule</text>
</g>
<!-- AppRoutingModule&#45;&gt;AppModule -->
<g id="edge14" class="edge">
<title>AppRoutingModule&#45;&gt;AppModule</title>
<path fill="none" stroke="#000000" d="M840,-198.2377C840,-236.9861 840,-324 840,-324 840,-324 1475.3161,-324 1475.3161,-324"/>
<polygon fill="#000000" stroke="#000000" points="1475.3161,-327.5001 1485.3161,-324 1475.316,-320.5001 1475.3161,-327.5001"/>
</g>
<!-- CoreModule -->
<g id="node16" class="node">
<title>CoreModule</title>
<polygon fill="#8dd3c7" stroke="#000000" points="1691.2619,-198 1688.2619,-202 1667.2619,-202 1664.2619,-198 1604.7381,-198 1604.7381,-162 1691.2619,-162 1691.2619,-198"/>
<text text-anchor="middle" x="1648" y="-175.8" font-family="Times,serif" font-size="14.00" fill="#000000">CoreModule</text>
</g>
<!-- CoreModule&#45;&gt;AppModule -->
<g id="edge15" class="edge">
<title>CoreModule&#45;&gt;AppModule</title>
<path fill="none" stroke="#000000" d="M1673.4194,-198.1149C1673.4194,-231.8699 1673.4194,-301 1673.4194,-301 1673.4194,-301 1578.9579,-301 1578.9579,-301"/>
<polygon fill="#000000" stroke="#000000" points="1578.9579,-297.5001 1568.9579,-301 1578.9579,-304.5001 1578.9579,-297.5001"/>
</g>
<!-- ProposalModule -->
<g id="node19" class="node">
<title>ProposalModule</title>
<polygon fill="#8dd3c7" stroke="#000000" points="1664.0438,-266 1661.0438,-270 1640.0438,-270 1637.0438,-266 1555.9562,-266 1555.9562,-230 1664.0438,-230 1664.0438,-266"/>
<text text-anchor="middle" x="1610" y="-243.8" font-family="Times,serif" font-size="14.00" fill="#000000">ProposalModule</text>
</g>
<!-- CoreModule&#45;&gt;ProposalModule -->
<g id="edge40" class="edge">
<title>CoreModule&#45;&gt;ProposalModule</title>
<path fill="none" stroke="#000000" d="M1619.5323,-198.2228C1619.5323,-198.2228 1619.5323,-219.7269 1619.5323,-219.7269"/>
<polygon fill="#000000" stroke="#000000" points="1616.0323,-219.7269 1619.5323,-229.7269 1623.0323,-219.727 1616.0323,-219.7269"/>
</g>
<!-- SwapBoardModule -->
<g id="node21" class="node">
<title>SwapBoardModule</title>
<polygon fill="#8dd3c7" stroke="#000000" points="1807.3655,-266 1804.3655,-270 1783.3655,-270 1780.3655,-266 1682.6345,-266 1682.6345,-230 1807.3655,-230 1807.3655,-266"/>
<text text-anchor="middle" x="1745" y="-243.8" font-family="Times,serif" font-size="14.00" fill="#000000">SwapBoardModule</text>
</g>
<!-- CoreModule&#45;&gt;SwapBoardModule -->
<g id="edge45" class="edge">
<title>CoreModule&#45;&gt;SwapBoardModule</title>
<path fill="none" stroke="#000000" d="M1686.974,-198.2228C1686.974,-198.2228 1686.974,-219.7269 1686.974,-219.7269"/>
<polygon fill="#000000" stroke="#000000" points="1683.4741,-219.7269 1686.974,-229.7269 1690.4741,-219.727 1683.4741,-219.7269"/>
</g>
<!-- OwnerNamePipe  -->
<g id="node29" class="node">
<title>OwnerNamePipe </title>
<polygon fill="#fb8072" stroke="#000000" points="1705.9026,-122 1590.0974,-122 1590.0974,-86 1705.9026,-86 1705.9026,-122"/>
<text text-anchor="middle" x="1648" y="-99.8" font-family="Times,serif" font-size="14.00" fill="#000000">OwnerNamePipe </text>
</g>
<!-- CoreModule&#45;&gt;OwnerNamePipe  -->
<g id="edge28" class="edge">
<title>CoreModule&#45;&gt;OwnerNamePipe </title>
<path fill="none" stroke="#000000" stroke-dasharray="5,2" d="M1654.1973,-161.9891C1654.1973,-161.9891 1654.1973,-132.145 1654.1973,-132.145"/>
<polygon fill="#000000" stroke="#000000" points="1657.6974,-132.145 1654.1973,-122.145 1650.6974,-132.1451 1657.6974,-132.145"/>
</g>
<!-- PackageSizePipe  -->
<g id="node30" class="node">
<title>PackageSizePipe </title>
<polygon fill="#fb8072" stroke="#000000" points="1571.6313,-122 1456.3687,-122 1456.3687,-86 1571.6313,-86 1571.6313,-122"/>
<text text-anchor="middle" x="1514" y="-99.8" font-family="Times,serif" font-size="14.00" fill="#000000">PackageSizePipe </text>
</g>
<!-- CoreModule&#45;&gt;PackageSizePipe  -->
<g id="edge29" class="edge">
<title>CoreModule&#45;&gt;PackageSizePipe </title>
<path fill="none" stroke="#000000" stroke-dasharray="5,2" d="M1648,-161.9909C1648,-145.9506 1648,-125 1648,-125 1648,-125 1514,-125 1514,-125 1514,-125 1514,-124.708 1514,-124.708"/>
<polygon fill="#000000" stroke="#000000" points="1517.5004,-132.0799 1514,-122.08 1510.5004,-132.0802 1517.5004,-132.0799"/>
</g>
<!-- PriceDivisorsPipe  -->
<g id="node31" class="node">
<title>PriceDivisorsPipe </title>
<polygon fill="#fb8072" stroke="#000000" points="1438.0891,-122 1317.9109,-122 1317.9109,-86 1438.0891,-86 1438.0891,-122"/>
<text text-anchor="middle" x="1378" y="-99.8" font-family="Times,serif" font-size="14.00" fill="#000000">PriceDivisorsPipe </text>
</g>
<!-- CoreModule&#45;&gt;PriceDivisorsPipe  -->
<g id="edge30" class="edge">
<title>CoreModule&#45;&gt;PriceDivisorsPipe </title>
<path fill="none" stroke="#000000" stroke-dasharray="5,2" d="M1641.8027,-161.8129C1641.8027,-146.8176 1641.8027,-128 1641.8027,-128 1641.8027,-128 1431.6429,-128 1431.6429,-128 1431.6429,-128 1431.6429,-127.419 1431.6429,-127.419"/>
<polygon fill="#000000" stroke="#000000" points="1435.1431,-132.1902 1431.6429,-122.1903 1428.1431,-132.1903 1435.1431,-132.1902"/>
</g>
<!-- SimpleDialogComponent  -->
<g id="node32" class="node">
<title>SimpleDialogComponent </title>
<polygon fill="#fb8072" stroke="#000000" points="1299.1043,-122 1136.8957,-122 1136.8957,-86 1299.1043,-86 1299.1043,-122"/>
<text text-anchor="middle" x="1218" y="-99.8" font-family="Times,serif" font-size="14.00" fill="#000000">SimpleDialogComponent </text>
</g>
<!-- CoreModule&#45;&gt;SimpleDialogComponent  -->
<g id="edge31" class="edge">
<title>CoreModule&#45;&gt;SimpleDialogComponent </title>
<path fill="none" stroke="#000000" stroke-dasharray="5,2" d="M1635.6055,-161.7542C1635.6055,-147.8228 1635.6055,-131 1635.6055,-131 1635.6055,-131 1277.1552,-131 1277.1552,-131 1277.1552,-131 1277.1552,-130.1159 1277.1552,-130.1159"/>
<polygon fill="#000000" stroke="#000000" points="1280.6553,-132.1591 1277.1552,-122.1592 1273.6553,-132.1592 1280.6553,-132.1591"/>
</g>
<!-- TeirsPipe  -->
<g id="node33" class="node">
<title>TeirsPipe </title>
<polygon fill="#fb8072" stroke="#000000" points="1118.651,-122 1045.349,-122 1045.349,-86 1118.651,-86 1118.651,-122"/>
<text text-anchor="middle" x="1082" y="-99.8" font-family="Times,serif" font-size="14.00" fill="#000000">TeirsPipe </text>
</g>
<!-- CoreModule&#45;&gt;TeirsPipe  -->
<g id="edge32" class="edge">
<title>CoreModule&#45;&gt;TeirsPipe </title>
<path fill="none" stroke="#000000" stroke-dasharray="5,2" d="M1629.4082,-161.8196C1629.4082,-148.9618 1629.4082,-134 1629.4082,-134 1629.4082,-134 1100.8726,-134 1100.8726,-134 1100.8726,-134 1100.8726,-132.1432 1100.8726,-132.1432"/>
<polygon fill="#000000" stroke="#000000" points="1104.3726,-132.1432 1100.8726,-122.1432 1097.3726,-132.1432 1104.3726,-132.1432"/>
</g>
<!-- ProfileModule -->
<g id="node17" class="node">
<title>ProfileModule</title>
<polygon fill="#8dd3c7" stroke="#000000" points="1806.65,-198 1803.65,-202 1782.65,-202 1779.65,-198 1709.35,-198 1709.35,-162 1806.65,-162 1806.65,-198"/>
<text text-anchor="middle" x="1758" y="-175.8" font-family="Times,serif" font-size="14.00" fill="#000000">ProfileModule</text>
</g>
<!-- ProfileModule&#45;&gt;AppModule -->
<g id="edge16" class="edge">
<title>ProfileModule&#45;&gt;AppModule</title>
<path fill="none" stroke="#000000" d="M1725.4502,-198.1679C1725.4502,-200.4478 1725.4502,-202 1725.4502,-202 1725.4502,-202 1538.0894,-202 1538.0894,-202 1538.0894,-202 1538.0894,-284.6706 1538.0894,-284.6706"/>
<polygon fill="#000000" stroke="#000000" points="1534.5895,-284.6706 1538.0894,-294.6706 1541.5895,-284.6706 1534.5895,-284.6706"/>
</g>
<!-- ProfileRoutingModule -->
<g id="node18" class="node">
<title>ProfileRoutingModule</title>
<polygon fill="#8dd3c7" stroke="#000000" points="1065.2674,-198 1062.2674,-202 1041.2674,-202 1038.2674,-198 922.7326,-198 922.7326,-162 1065.2674,-162 1065.2674,-198"/>
<text text-anchor="middle" x="994" y="-175.8" font-family="Times,serif" font-size="14.00" fill="#000000">ProfileRoutingModule</text>
</g>
<!-- ProfileRoutingModule&#45;&gt;AppModule -->
<g id="edge17" class="edge">
<title>ProfileRoutingModule&#45;&gt;AppModule</title>
<path fill="none" stroke="#000000" d="M994,-198.1925C994,-235.4592 994,-317 994,-317 994,-317 1475.1764,-317 1475.1764,-317"/>
<polygon fill="#000000" stroke="#000000" points="1475.1764,-320.5001 1485.1764,-317 1475.1763,-313.5001 1475.1764,-320.5001"/>
</g>
<!-- ProposalModule&#45;&gt;AppModule -->
<g id="edge18" class="edge">
<title>ProposalModule&#45;&gt;AppModule</title>
<path fill="none" stroke="#000000" d="M1562.2784,-266.1061C1562.2784,-266.1061 1562.2784,-284.991 1562.2784,-284.991"/>
<polygon fill="#000000" stroke="#000000" points="1558.7785,-284.9909 1562.2784,-294.991 1565.7785,-284.991 1558.7785,-284.9909"/>
</g>
<!-- ProposalRoutingModule -->
<g id="node20" class="node">
<title>ProposalRoutingModule</title>
<polygon fill="#8dd3c7" stroke="#000000" points="1236.661,-198 1233.661,-202 1212.661,-202 1209.661,-198 1083.339,-198 1083.339,-162 1236.661,-162 1236.661,-198"/>
<text text-anchor="middle" x="1160" y="-175.8" font-family="Times,serif" font-size="14.00" fill="#000000">ProposalRoutingModule</text>
</g>
<!-- ProposalRoutingModule&#45;&gt;AppModule -->
<g id="edge19" class="edge">
<title>ProposalRoutingModule&#45;&gt;AppModule</title>
<path fill="none" stroke="#000000" d="M1160,-198.0759C1160,-233.7964 1160,-310 1160,-310 1160,-310 1475.2577,-310 1475.2577,-310"/>
<polygon fill="#000000" stroke="#000000" points="1475.2578,-313.5001 1485.2577,-310 1475.2577,-306.5001 1475.2578,-313.5001"/>
</g>
<!-- SwapBoardModule&#45;&gt;AppModule -->
<g id="edge20" class="edge">
<title>SwapBoardModule&#45;&gt;AppModule</title>
<path fill="none" stroke="#000000" d="M1745,-266.0336C1745,-283.0597 1745,-306 1745,-306 1745,-306 1578.7747,-306 1578.7747,-306"/>
<polygon fill="#000000" stroke="#000000" points="1578.7747,-302.5001 1568.7747,-306 1578.7746,-309.5001 1578.7747,-302.5001"/>
</g>
<!-- SwapBoardRoutingModule -->
<g id="node22" class="node">
<title>SwapBoardRoutingModule</title>
<polygon fill="#8dd3c7" stroke="#000000" points="1424.9832,-198 1421.9832,-202 1400.9832,-202 1397.9832,-198 1255.0168,-198 1255.0168,-162 1424.9832,-162 1424.9832,-198"/>
<text text-anchor="middle" x="1340" y="-175.8" font-family="Times,serif" font-size="14.00" fill="#000000">SwapBoardRoutingModule</text>
</g>
<!-- SwapBoardRoutingModule&#45;&gt;AppModule -->
<g id="edge21" class="edge">
<title>SwapBoardRoutingModule&#45;&gt;AppModule</title>
<path fill="none" stroke="#000000" d="M1340,-198.1491C1340,-232.3636 1340,-303 1340,-303 1340,-303 1475.0335,-303 1475.0335,-303"/>
<polygon fill="#000000" stroke="#000000" points="1475.0336,-306.5001 1485.0335,-303 1475.0335,-299.5001 1475.0336,-306.5001"/>
</g>
<!-- OwnerNamePipe -->
<g id="node24" class="node">
<title>OwnerNamePipe</title>
<polygon fill="#ffffb3" stroke="#000000" points="2371.4033,-122 2258.5967,-122 2258.5967,-86 2371.4033,-86 2371.4033,-122"/>
<text text-anchor="middle" x="2315" y="-99.8" font-family="Times,serif" font-size="14.00" fill="#000000">OwnerNamePipe</text>
</g>
<!-- OwnerNamePipe&#45;&gt;CoreModule -->
<g id="edge23" class="edge">
<title>OwnerNamePipe&#45;&gt;CoreModule</title>
<path fill="none" stroke="#000000" d="M2318,-122.2396C2318,-137.5706 2318,-157 2318,-157 2318,-157 1685.1835,-157 1685.1835,-157 1685.1835,-157 1685.1835,-157.4878 1685.1835,-157.4878"/>
<polygon fill="#000000" stroke="#000000" points="1681.6838,-151.8776 1685.1835,-161.8777 1688.6838,-151.8778 1681.6838,-151.8776"/>
</g>
<!-- PackageSizePipe -->
<g id="node25" class="node">
<title>PackageSizePipe</title>
<polygon fill="#ffffb3" stroke="#000000" points="2240.6318,-122 2129.3682,-122 2129.3682,-86 2240.6318,-86 2240.6318,-122"/>
<text text-anchor="middle" x="2185" y="-99.8" font-family="Times,serif" font-size="14.00" fill="#000000">PackageSizePipe</text>
</g>
<!-- PackageSizePipe&#45;&gt;CoreModule -->
<g id="edge24" class="edge">
<title>PackageSizePipe&#45;&gt;CoreModule</title>
<path fill="none" stroke="#000000" d="M2186.7139,-122.0511C2186.7139,-136.373 2186.7139,-154 2186.7139,-154 2186.7139,-154 1678.9863,-154 1678.9863,-154 1678.9863,-154 1678.9863,-154.7942 1678.9863,-154.7942"/>
<polygon fill="#000000" stroke="#000000" points="1675.4864,-151.9421 1678.9863,-161.9421 1682.4864,-151.9422 1675.4864,-151.9421"/>
</g>
<!-- PriceDivisorsPipe -->
<g id="node26" class="node">
<title>PriceDivisorsPipe</title>
<polygon fill="#ffffb3" stroke="#000000" points="2111.5884,-122 1994.4116,-122 1994.4116,-86 2111.5884,-86 2111.5884,-122"/>
<text text-anchor="middle" x="2053" y="-99.8" font-family="Times,serif" font-size="14.00" fill="#000000">PriceDivisorsPipe</text>
</g>
<!-- PriceDivisorsPipe&#45;&gt;CoreModule -->
<g id="edge25" class="edge">
<title>PriceDivisorsPipe&#45;&gt;CoreModule</title>
<path fill="none" stroke="#000000" d="M2053,-122.037C2053,-135.2913 2053,-151 2053,-151 2053,-151 1672.789,-151 1672.789,-151 1672.789,-151 1672.789,-152.0799 1672.789,-152.0799"/>
<polygon fill="#000000" stroke="#000000" points="1669.2891,-151.7985 1672.789,-161.7985 1676.2891,-151.7986 1669.2891,-151.7985"/>
</g>
<!-- SimpleDialogComponent -->
<g id="node27" class="node">
<title>SimpleDialogComponent</title>
<polygon fill="#ffffb3" stroke="#000000" points="1976.6038,-122 1817.3962,-122 1817.3962,-86 1976.6038,-86 1976.6038,-122"/>
<text text-anchor="middle" x="1897" y="-99.8" font-family="Times,serif" font-size="14.00" fill="#000000">SimpleDialogComponent</text>
</g>
<!-- SimpleDialogComponent&#45;&gt;CoreModule -->
<g id="edge26" class="edge">
<title>SimpleDialogComponent&#45;&gt;CoreModule</title>
<path fill="none" stroke="#000000" d="M1824.2279,-122.1505C1824.2279,-134.2708 1824.2279,-148 1824.2279,-148 1824.2279,-148 1666.5918,-148 1666.5918,-148 1666.5918,-148 1666.5918,-151.7566 1666.5918,-151.7566"/>
<polygon fill="#000000" stroke="#000000" points="1663.0919,-151.7566 1666.5918,-161.7566 1670.0919,-151.7566 1663.0919,-151.7566"/>
</g>
<!-- TeirsPipe -->
<g id="node28" class="node">
<title>TeirsPipe</title>
<polygon fill="#ffffb3" stroke="#000000" points="1799.6517,-122 1730.3483,-122 1730.3483,-86 1799.6517,-86 1799.6517,-122"/>
<text text-anchor="middle" x="1765" y="-99.8" font-family="Times,serif" font-size="14.00" fill="#000000">TeirsPipe</text>
</g>
<!-- TeirsPipe&#45;&gt;CoreModule -->
<g id="edge27" class="edge">
<title>TeirsPipe&#45;&gt;CoreModule</title>
<path fill="none" stroke="#000000" d="M1753.3915,-122.1025C1753.3915,-133.0859 1753.3915,-145 1753.3915,-145 1753.3915,-145 1660.3945,-145 1660.3945,-145 1660.3945,-145 1660.3945,-151.68 1660.3945,-151.68"/>
<polygon fill="#000000" stroke="#000000" points="1656.8946,-151.6799 1660.3945,-161.68 1663.8946,-151.68 1656.8946,-151.6799"/>
</g>
<!-- AuthService -->
<g id="node34" class="node">
<title>AuthService</title>
<ellipse fill="#fdb462" stroke="#000000" cx="962" cy="-104" rx="59.1083" ry="18"/>
<text text-anchor="middle" x="962" y="-99.8" font-family="Times,serif" font-size="14.00" fill="#000000">AuthService</text>
</g>
<!-- AuthService&#45;&gt;CoreModule -->
<g id="edge33" class="edge">
<title>AuthService&#45;&gt;CoreModule</title>
<path fill="none" stroke="#000000" d="M971.9601,-122.0449C971.9601,-129.749 971.9601,-137 971.9601,-137 971.9601,-137 1623.211,-137 1623.211,-137 1623.211,-137 1623.211,-151.5146 1623.211,-151.5146"/>
<polygon fill="#000000" stroke="#000000" points="1619.7111,-151.5145 1623.211,-161.5146 1626.7111,-151.5146 1619.7111,-151.5145"/>
</g>
<!-- BoardService -->
<g id="node35" class="node">
<title>BoardService</title>
<ellipse fill="#fdb462" stroke="#000000" cx="821" cy="-104" rx="63.6813" ry="18"/>
<text text-anchor="middle" x="821" y="-99.8" font-family="Times,serif" font-size="14.00" fill="#000000">BoardService</text>
</g>
<!-- BoardService&#45;&gt;CoreModule -->
<g id="edge34" class="edge">
<title>BoardService&#45;&gt;CoreModule</title>
<path fill="none" stroke="#000000" d="M830.1017,-122C830.1017,-131 830.1017,-140 830.1017,-140 830.1017,-140 1617.0137,-140 1617.0137,-140 1617.0137,-140 1617.0137,-151.8726 1617.0137,-151.8726"/>
<polygon fill="#000000" stroke="#000000" points="1613.5138,-151.8725 1617.0137,-161.8726 1620.5138,-151.8726 1613.5138,-151.8725"/>
</g>
<!-- UserService -->
<g id="node36" class="node">
<title>UserService</title>
<ellipse fill="#fdb462" stroke="#000000" cx="681" cy="-104" rx="58.4415" ry="18"/>
<text text-anchor="middle" x="681" y="-99.8" font-family="Times,serif" font-size="14.00" fill="#000000">UserService</text>
</g>
<!-- UserService&#45;&gt;CoreModule -->
<g id="edge35" class="edge">
<title>UserService&#45;&gt;CoreModule</title>
<path fill="none" stroke="#000000" d="M679.5543,-122.1097C679.5543,-131.897 679.5543,-142 679.5543,-142 679.5543,-142 1610.8165,-142 1610.8165,-142 1610.8165,-142 1610.8165,-151.8903 1610.8165,-151.8903"/>
<polygon fill="#000000" stroke="#000000" points="1607.3166,-151.8903 1610.8165,-161.8903 1614.3166,-151.8904 1607.3166,-151.8903"/>
</g>
<!-- EditProfileComponent -->
<g id="node37" class="node">
<title>EditProfileComponent</title>
<polygon fill="#ffffb3" stroke="#000000" points="2721.266,-122 2578.734,-122 2578.734,-86 2721.266,-86 2721.266,-122"/>
<text text-anchor="middle" x="2650" y="-99.8" font-family="Times,serif" font-size="14.00" fill="#000000">EditProfileComponent</text>
</g>
<!-- EditProfileComponent&#45;&gt;ProfileModule -->
<g id="edge36" class="edge">
<title>EditProfileComponent&#45;&gt;ProfileModule</title>
<path fill="none" stroke="#000000" d="M2586.1743,-122.027C2586.1743,-138.3976 2586.1743,-160 2586.1743,-160 2586.1743,-160 1776.6085,-160 1776.6085,-160 1776.6085,-160 1776.6085,-160.1846 1776.6085,-160.1846"/>
<polygon fill="#000000" stroke="#000000" points="1773.1091,-151.8455 1776.6085,-161.8457 1780.1091,-151.8459 1773.1091,-151.8455"/>
</g>
<!-- ViewProfileComponent -->
<g id="node38" class="node">
<title>ViewProfileComponent</title>
<polygon fill="#ffffb3" stroke="#000000" points="2560.7506,-122 2411.2494,-122 2411.2494,-86 2560.7506,-86 2560.7506,-122"/>
<text text-anchor="middle" x="2486" y="-99.8" font-family="Times,serif" font-size="14.00" fill="#000000">ViewProfileComponent</text>
</g>
<!-- ViewProfileComponent&#45;&gt;ProfileModule -->
<g id="edge37" class="edge">
<title>ViewProfileComponent&#45;&gt;ProfileModule</title>
<path fill="none" stroke="#000000" d="M2411.1214,-104C2399.3431,-104 2390.9674,-104 2390.9674,-104 2390.9674,-104 2390.9674,-180 2390.9674,-180 2390.9674,-180 1816.8787,-180 1816.8787,-180"/>
<polygon fill="#000000" stroke="#000000" points="1816.8788,-176.5001 1806.8787,-180 1816.8787,-183.5001 1816.8788,-176.5001"/>
</g>
<!-- ProposalBoardComponent -->
<g id="node39" class="node">
<title>ProposalBoardComponent</title>
<polygon fill="#ffffb3" stroke="#000000" points="2758.0378,-198 2593.9622,-198 2593.9622,-162 2758.0378,-162 2758.0378,-198"/>
<text text-anchor="middle" x="2676" y="-175.8" font-family="Times,serif" font-size="14.00" fill="#000000">ProposalBoardComponent</text>
</g>
<!-- ProposalBoardComponent&#45;&gt;ProposalModule -->
<g id="edge38" class="edge">
<title>ProposalBoardComponent&#45;&gt;ProposalModule</title>
<path fill="none" stroke="#000000" d="M2676,-198.1432C2676,-204.4611 2676,-210 2676,-210 2676,-210 1649.3584,-210 1649.3584,-210 1649.3584,-210 1649.3584,-219.8903 1649.3584,-219.8903"/>
<polygon fill="#000000" stroke="#000000" points="1645.8584,-219.8903 1649.3584,-229.8903 1652.8584,-219.8904 1645.8584,-219.8903"/>
</g>
<!-- ProposalDetailComponent -->
<g id="node40" class="node">
<title>ProposalDetailComponent</title>
<polygon fill="#ffffb3" stroke="#000000" points="2575.0337,-198 2410.9663,-198 2410.9663,-162 2575.0337,-162 2575.0337,-198"/>
<text text-anchor="middle" x="2493" y="-175.8" font-family="Times,serif" font-size="14.00" fill="#000000">ProposalDetailComponent</text>
</g>
<!-- ProposalDetailComponent&#45;&gt;ProposalModule -->
<g id="edge39" class="edge">
<title>ProposalDetailComponent&#45;&gt;ProposalModule</title>
<path fill="none" stroke="#000000" d="M2493,-198.0579C2493,-202.4945 2493,-206 2493,-206 2493,-206 1634.4453,-206 1634.4453,-206 1634.4453,-206 1634.4453,-219.9445 1634.4453,-219.9445"/>
<polygon fill="#000000" stroke="#000000" points="1630.9454,-219.9444 1634.4453,-229.9445 1637.9454,-219.9445 1630.9454,-219.9444"/>
</g>
<!-- AddEditItemDialogComponent -->
<g id="node41" class="node">
<title>AddEditItemDialogComponent</title>
<polygon fill="#ffffb3" stroke="#000000" points="3150.0322,-198 2957.9678,-198 2957.9678,-162 3150.0322,-162 3150.0322,-198"/>
<text text-anchor="middle" x="3054" y="-175.8" font-family="Times,serif" font-size="14.00" fill="#000000">AddEditItemDialogComponent</text>
</g>
<!-- AddEditItemDialogComponent&#45;&gt;SwapBoardModule -->
<g id="edge41" class="edge">
<title>AddEditItemDialogComponent&#45;&gt;SwapBoardModule</title>
<path fill="none" stroke="#000000" d="M3054,-198.1097C3054,-207.897 3054,-218 3054,-218 3054,-218 1758,-218 1758,-218 1758,-218 1758,-219.8568 1758,-219.8568"/>
<polygon fill="#000000" stroke="#000000" points="1754.5001,-219.8568 1758,-229.8568 1761.5001,-219.8568 1754.5001,-219.8568"/>
</g>
<!-- ItemDetailComponent -->
<g id="node42" class="node">
<title>ItemDetailComponent</title>
<polygon fill="#ffffb3" stroke="#000000" points="2939.6965,-198 2798.3035,-198 2798.3035,-162 2939.6965,-162 2939.6965,-198"/>
<text text-anchor="middle" x="2869" y="-175.8" font-family="Times,serif" font-size="14.00" fill="#000000">ItemDetailComponent</text>
</g>
<!-- ItemDetailComponent&#45;&gt;SwapBoardModule -->
<g id="edge42" class="edge">
<title>ItemDetailComponent&#45;&gt;SwapBoardModule</title>
<path fill="none" stroke="#000000" d="M2869,-198.1944C2869,-206.2782 2869,-214 2869,-214 2869,-214 1741.7251,-214 1741.7251,-214 1741.7251,-214 1741.7251,-219.8056 1741.7251,-219.8056"/>
<polygon fill="#000000" stroke="#000000" points="1738.2252,-219.8055 1741.7251,-229.8056 1745.2252,-219.8056 1738.2252,-219.8055"/>
</g>
<!-- MainBoardComponent -->
<g id="node43" class="node">
<title>MainBoardComponent</title>
<polygon fill="#ffffb3" stroke="#000000" points="3528.594,-198 3383.406,-198 3383.406,-162 3528.594,-162 3528.594,-198"/>
<text text-anchor="middle" x="3456" y="-175.8" font-family="Times,serif" font-size="14.00" fill="#000000">MainBoardComponent</text>
</g>
<!-- MainBoardComponent&#45;&gt;SwapBoardModule -->
<g id="edge43" class="edge">
<title>MainBoardComponent&#45;&gt;SwapBoardModule</title>
<path fill="none" stroke="#000000" d="M3456,-198.1804C3456,-211.0382 3456,-226 3456,-226 3456,-226 1790.5498,-226 1790.5498,-226 1790.5498,-226 1790.5498,-226.3832 1790.5498,-226.3832"/>
<polygon fill="#000000" stroke="#000000" points="1787.0501,-219.832 1790.5498,-229.8321 1794.0501,-219.8322 1787.0501,-219.832"/>
</g>
<!-- ProposeTradeDialogComponent -->
<g id="node44" class="node">
<title>ProposeTradeDialogComponent</title>
<polygon fill="#ffffb3" stroke="#000000" points="3365.6797,-198 3168.3203,-198 3168.3203,-162 3365.6797,-162 3365.6797,-198"/>
<text text-anchor="middle" x="3267" y="-175.8" font-family="Times,serif" font-size="14.00" fill="#000000">ProposeTradeDialogComponent</text>
</g>
<!-- ProposeTradeDialogComponent&#45;&gt;SwapBoardModule -->
<g id="edge44" class="edge">
<title>ProposeTradeDialogComponent&#45;&gt;SwapBoardModule</title>
<path fill="none" stroke="#000000" d="M3267,-198.0555C3267,-209.439 3267,-222 3267,-222 3267,-222 1774.2749,-222 1774.2749,-222 1774.2749,-222 1774.2749,-222.7942 1774.2749,-222.7942"/>
<polygon fill="#000000" stroke="#000000" points="1770.775,-219.9421 1774.2749,-229.9421 1777.775,-219.9422 1770.775,-219.9421"/>
</g>
</g>
</svg>
